<?xml version="1.0" encoding="UTF-8"?>
<svg width="60px" height="37px" viewBox="0 0 60 37" version="1.1"
    xmlns="http://www.w3.org/2000/svg"
    xmlns:xlink="http://www.w3.org/1999/xlink">
    <!-- Generator: Sketch 57.1 (83088) - https://sketch.com -->
    <title>Group</title>
    <desc>Created with Sketch.</desc>
    <defs>
        <path d="M12.4444536,2.62787567 C12.4444536,4.09203096 13.4535449,5.18591158 14.7998783,5.18591158 C16.1130896,5.18591158 17.1496572,4.0775671 17.1496572,2.65639012 C17.1496572,1.24471796 16.1198646,0.135546976 14.7998783,0.135546976 C13.4990876,0.135546976 12.4444536,1.25091676 12.4444536,2.62787567 Z" id="path-1"></path>
        <filter x="-31.9%" y="-29.7%" width="163.8%" height="159.4%" filterUnits="objectBoundingBox" id="filter-2">
            <feGaussianBlur stdDeviation="1" in="SourceAlpha" result="shadowBlurInner1"></feGaussianBlur>
            <feOffset dx="1" dy="1" in="shadowBlurInner1" result="shadowOffsetInner1"></feOffset>
            <feComposite in="shadowOffsetInner1" in2="SourceAlpha" operator="arithmetic" k2="-1" k3="1" result="shadowInnerInner1"></feComposite>
            <feColorMatrix values="0 0 0 0 0   0 0 0 0 0   0 0 0 0 0  0 0 0 0.5 0" type="matrix" in="shadowInnerInner1"></feColorMatrix>
        </filter>
    </defs>
    <g id="Hi-Fi-Flows-V1" stroke="none" stroke-width="1" fill="none" fill-rule="evenodd">
        <g id="C1---Account-and-Pay" transform="translate(-24.000000, -1277.000000)">
            <g id="Group" transform="translate(24.000000, 1278.000000)">
                
                <g id="discover-copy">
                    <g id="card" fill="#F9F9F9" stroke="#D1D1D1" stroke-width="0.891089109">
                        <rect x="0.0215913221" y="0.164483132" width="54.9318246" height="34.4336452" rx="4.45544554"></rect>
                    </g>
                    <path d="M55.2475248,20.4950495 L55.2475248,30.2879106 C55.2475248,32.7536216 53.2611367,34.7524752 50.786275,34.7524752 C50.786275,34.7524752 22.7262805,34.7524752 15.1485149,34.7524752 C32.1984876,31.3430908 44.5123567,26.6939303 55.2475248,20.4950495 Z" id="shape" fill="#F58220"></path>
                    <g id="logo" transform="translate(13.366337, 13.366337)">
                        <g id="registered" transform="translate(27.476191, 0.223845)" fill="#231F20">
                            <path d="M0.976603752,0.506352424 C0.976603752,0.330026877 0.854524544,0.23197267 0.629078999,0.23197267 L0.332346326,0.23197267 L0.332346326,1.12306178 L0.550663158,1.12306178 L0.550663158,0.776431556 L0.80818791,1.12306178 L1.08264336,1.12306178 L0.774326524,0.75492844 C0.904425534,0.72138358 0.976603752,0.63021037 0.976603752,0.506352424 L0.976603752,0.506352424 Z M0.591653257,0.626769872 L0.550663158,0.626769872 L0.550663158,0.397116597 L0.594326524,0.397116597 C0.702148306,0.397116597 0.757395831,0.434101956 0.757395831,0.509792923 C0.757395831,0.587204139 0.699475039,0.626769872 0.591653257,0.626769872 L0.591653257,0.626769872 Z" id="r"></path>
                            <path d="M0.584782874,0.0716305157 C0.335794785,0.0716305157 0.1370019,0.269869487 0.1370019,0.517421636 C0.1370019,0.763987521 0.336788749,0.962719625 0.584782874,0.962719625 C0.828801141,0.962719625 1.02809101,0.762014994 1.02809101,0.517421636 C1.02809101,0.272828278 0.828801141,0.0716305157 0.584782874,0.0716305157 L0.584782874,0.0716305157 Z M0.584285892,0.882339146 C0.385493006,0.882339146 0.224967751,0.720591925 0.224967751,0.5184079 C0.224967751,0.314251347 0.384499042,0.152504126 0.584285892,0.152504126 C0.778605937,0.152504126 0.937640246,0.317210137 0.937640246,0.5184079 C0.937640246,0.718619398 0.778605937,0.882339146 0.584285892,0.882339146 L0.584285892,0.882339146 Z" id="Fill-12"></path>
                        </g>
                        <path d="M27.4728009,1.65797094 C27.4728009,0.748814391 26.903705,0.226049377 25.9096691,0.226049377 L24.6307089,0.226049377 L24.6307089,5.0768128 L25.4926332,5.0768128 L25.4926332,3.12749851 L25.6055491,3.12749851 L26.7971877,5.0768128 L27.8574676,5.0768128 L26.4652151,3.03327684 C27.1156104,2.88781179 27.4728009,2.40058653 27.4728009,1.65797094 L27.4728009,1.65797094 Z M25.7433064,2.45844195 L25.4926332,2.45844195 L25.4926332,0.988914369 L25.7576091,0.988914369 C26.2947121,0.988914369 26.5867878,1.23727941 26.5867878,1.70880105 C26.5867878,2.19602631 26.2947121,2.45844195 25.7433064,2.45844195 L25.7433064,2.45844195 Z" id="r" fill="#231F20"></path>
                        <polyline id="e" fill="#231F20" points="21.6177375 5.0768128 24.0619893 5.0768128 24.0619893 4.25526588 22.4789091 4.25526588 22.4789091 2.94525395 24.0017675 2.94525395 24.0017675 2.12453354 22.4789091 2.12453354 22.4789091 1.04759629 24.0619893 1.04759629 24.0619893 0.226049377 21.6177375 0.226049377 21.6177375 5.0768128"></polyline>
                        <polyline id="v" fill="#231F20" points="19.0993376 3.48454908 17.9197433 0.226049377 16.9791542 0.226049377 18.8546866 5.20120194 19.3180179 5.20120194 21.2262959 0.226049377 20.2924818 0.226049377 19.0993376 3.48454908"></polyline>
                        <g id="Fill-1">
                            <use fill="#F48027" fill-rule="evenodd" xlink:href="#path-1"></use>
                            <use fill="black" fill-opacity="1" filter="url(#filter-2)" xlink:href="#path-1"></use>
                        </g>
                        <path d="M8.70505687,2.6539106 C8.70505687,4.08087313 9.72581618,5.18591158 11.0371456,5.18591158 C11.4086388,5.18591158 11.7263087,5.10615376 12.1177503,4.90242004 L12.1177503,3.78952978 C11.7722278,4.16806951 11.4677314,4.31973335 11.0766662,4.31973335 C10.209096,4.31973335 9.59257548,3.62877437 9.59257548,2.64647205 C9.59257548,1.71665286 10.2282917,0.981475815 11.0371456,0.981475815 C11.4474066,0.981475815 11.7590543,1.14223122 12.1177503,1.52696974 L12.1177503,0.414079481 C11.740235,0.203320464 11.4278345,0.116950592 11.0574705,0.116950592 C9.75178683,0.116950592 8.70505687,1.24471796 8.70505687,2.6539106" id="c" fill="#231F20"></path>
                        <path d="M7.16224992,2.08651427 C6.64471893,1.87658176 6.4930353,1.73772876 6.4930353,1.47613963 C6.4930353,1.17115893 6.76328057,0.938497506 7.1355265,0.938497506 C7.39372742,0.938497506 7.60563284,1.05503484 7.83146455,1.33026133 L8.28124603,0.684346926 C7.91012926,0.326883103 7.46674634,0.145465047 6.98271371,0.145465047 C6.20171239,0.145465047 5.6051403,0.74178909 5.6051403,1.5344083 C5.6051403,2.20429137 5.88328969,2.54563833 6.69139081,2.86549613 C7.0293856,2.99608407 7.20139408,3.08328045 7.28758652,3.14196237 C7.45997139,3.26635151 7.54654021,3.43991776 7.54654021,3.64323823 C7.54654021,4.03706831 7.26123949,4.3271719 6.87657281,4.3271719 C6.4655591,4.3271719 6.13471565,4.10277554 5.93598375,3.68043099 L5.38043775,4.27055624 C5.77714878,4.9098586 6.25403007,5.19376339 6.91044757,5.19376339 C7.80474113,5.19376339 8.43368243,4.53834417 8.43368243,3.60067317 C8.43368243,2.82995637 8.1431123,2.48034436 7.16224992,2.08651427" id="s" fill="#231F20"></path>
                        <polygon id="i" fill="#231F20" points="4.19406852 0.226049377 5.05524009 0.226049377 5.05524009 5.0768128 4.19406852 5.0768128"></polygon>
                        <path d="M1.4249954,0.226049377 L0.158832298,0.226049377 L0.158832298,5.0768128 L1.41897322,5.0768128 C2.08705869,5.0768128 2.57071493,4.90242004 2.99490215,4.51768152 C3.49775409,4.05814421 3.79622833,3.36718524 3.79622833,2.6539106 C3.79622833,1.22198905 2.82176451,0.226049377 1.4249954,0.226049377 L1.4249954,0.226049377 Z M2.4325812,3.8692876 C2.16007761,4.1391418 1.80966208,4.25526588 1.25261053,4.25526588 L1.02075665,4.25526588 L1.02075665,1.04759629 L1.25261053,1.04759629 C1.80966208,1.04759629 2.14652771,1.15669508 2.4325812,1.43977336 C2.73067906,1.73111671 2.90795695,2.18156245 2.90795695,2.64647205 C2.90795695,3.11303466 2.73067906,3.57959727 2.4325812,3.8692876 L2.4325812,3.8692876 Z" id="d" fill="#231F20"></path>
                    </g>
                </g>
                
            </g>
        </g>
    </g>
</svg>