<?xml version="1.0" encoding="UTF-8"?>
<svg width="19px" height="16px" viewBox="0 0 18 16" version="1.1" xmlns="http://www.w3.org/2000/svg" xmlns:xlink="http://www.w3.org/1999/xlink">
    <!-- Generator: sketchtool 57.1 (101010) - https://sketch.com -->
    <title>8C69EAFC-D4F6-4C9B-A056-CAD61E96CCC6</title>
    <desc>Created with sketchtool.</desc>
    <g id="Hi-Fi-Flows-V1-Desktop" stroke="none" stroke-width="1" fill="none" fill-rule="evenodd">
        <g id="A1DT---Local---Choose-your-number-3" transform="translate(-595.000000, -908.000000)" fill="#006699">
            <g id="Refresh-list" transform="translate(595.000000, 908.000000)">
                <g transform="translate(0.000000, 0.000000)">                   
                    <g id="refresh" transform="translate(0.000000, 0.000000)" fill-rule="nonzero">
                        <path d="M13.6210526,12.1473684 C13.4526316,11.8736842 13.0736842,11.8105263 12.8210526,12 C11.9578947,12.6736842 10.8631579,13.0736842 9.68421053,13.0736842 C6.92631579,13.0736842 4.65263158,10.8421053 4.61052632,8.08421053 C4.61052632,8.06315789 4.61052632,8 4.61052632,8 L5.87368421,8 C6.18947368,8 6.35789474,7.66315789 6.21052632,7.41052632 L3.57894737,3.05263158 C3.43157895,2.8 3.05263158,2.8 2.90526316,3.05263158 L0.252631579,7.41052632 C0.0842105263,7.66315789 0.273684211,8 0.589473684,8 L1.89473684,8 C1.89473684,10.0631579 2.71578947,12.0421053 4.18947368,13.5157895 C5.66315789,14.9894737 7.62105263,15.8105263 9.70526316,15.8105263 C11.4105263,15.8105263 13.0105263,15.2631579 14.3578947,14.2736842 C14.5894737,14.1052632 14.6315789,13.7894737 14.4842105,13.5578947 L13.6210526,12.1473684 Z" id="Path"></path>
                        <path d="M18.7789474,8 L17.4947368,8 C17.4947368,5.93684211 16.6736842,3.95789474 15.2,2.48421053 C13.7263158,1.01052632 11.7684211,0.189473684 9.68421053,0.189473684 C8,0.189473684 6.4,0.715789474 5.07368421,1.70526316 C4.84210526,1.87368421 4.77894737,2.18947368 4.92631579,2.42105263 L5.78947368,3.83157895 C5.95789474,4.10526316 6.31578947,4.16842105 6.56842105,3.97894737 C7.41052632,3.32631579 8.44210526,2.94736842 9.57894737,2.92631579 C12.4631579,2.88421053 14.7789474,5.17894737 14.7789474,8 L13.4736842,8 C13.1578947,8 12.9894737,8.33684211 13.1368421,8.58947368 L15.7894737,12.9473684 C15.9368421,13.2 16.3157895,13.2 16.4631579,12.9473684 L19.1157895,8.61052632 C19.2842105,8.33684211 19.0947368,8 18.7789474,8 Z" id="Path"></path>
                    </g>
                </g>
            </g>
        </g>
    </g>
</svg>