<?xml version="1.0" encoding="UTF-8"?>
<svg width="13px" height="13px" viewBox="0 0 13 13" version="1.1" xmlns="http://www.w3.org/2000/svg" xmlns:xlink="http://www.w3.org/1999/xlink">
    <!-- Generator: Sketch 57.1 (83088) - https://sketch.com -->
    <title>Path</title>
    <desc>Created with Sketch.</desc>
    <g id="Symbols" stroke="none" stroke-width="1" fill="none" fill-rule="evenodd">
        <g id="Global-header" transform="translate(-234.000000, -46.000000)" fill="#231F20" fill-rule="nonzero">
            <g id="Group-6" transform="translate(232.000000, 42.000000)">
                <g id="Group" transform="translate(8.599682, 10.541402) rotate(-10.000000) translate(-8.599682, -10.541402) translate(2.099682, 3.041402)">
                    <path d="M0.904394276,3.20735999 C0.941764465,3.07554869 0.978896627,2.94349641 1.0169809,2.81168511 C1.15503637,2.33239319 1.40163201,1.91888644 1.7370116,1.55285104 C1.96123274,1.30826517 2.22520433,1.11548813 2.50107725,0.946567244 C2.90262826,0.700776517 3.42081234,0.787526185 3.71977385,1.1819962 C4.04729857,1.61381678 4.36673037,2.0519026 4.68949455,2.48781968 C4.87539339,2.73891178 5.05938801,2.99169067 5.24623896,3.24205985 C5.57947631,3.6883387 5.52592031,4.24522338 5.09747228,4.6052345 C4.82778805,4.83174753 4.54048985,5.03705507 4.25938034,5.24935079 C4.18106956,5.30838876 4.09585601,5.35851079 4.01397483,5.41272933 C4.31745885,6.25733374 4.65855108,7.05374389 5.14888604,7.77641682 C5.90604891,8.89235492 6.68368208,9.53333858 7.52582048,10.1562494 C7.75646833,9.97865354 7.9899725,9.79792506 8.22442878,9.61840144 C8.34296607,9.52755526 8.46055125,9.43502228 8.58289696,9.34947747 C8.94493554,9.09621664 9.36505264,9.0873007 9.71495186,9.35236913 C9.85062706,9.4550229 9.95464472,9.60562997 10.0589004,9.74515235 C10.5209102,10.3632437 10.9757792,10.9871184 11.437789,11.6052098 C11.5694177,11.7811189 11.6205935,11.981125 11.6505848,12.191734 C11.6379694,12.2806524 11.625354,12.3695708 11.6127386,12.4582482 C11.5501376,12.5717457 11.5053885,12.7018702 11.4213651,12.79609 C11.1564414,13.0929666 10.8353434,13.3235762 10.4809217,13.4963526 C9.82849058,13.8139528 9.14892441,13.8970879 8.4396049,13.711299 C7.68077584,13.5124977 6.9845478,13.1765837 6.32759417,12.7519922 C5.81179035,12.4187289 5.33502291,12.032211 4.8880088,11.6105112 C4.32697992,11.0813382 3.81331834,10.5066217 3.34940434,9.8882893 C2.89977194,9.28899368 2.47084786,8.67475783 2.08619675,8.02967766 C1.64822765,7.29519713 1.26714694,6.53517365 1.03292868,5.70599141 C0.897253476,5.22597657 0.815610324,4.73849163 0.817251489,4.23823521 C0.817752565,4.09774894 0.817752565,3.95726268 0.817752565,3.81677641 C0.847029846,3.6136376 0.875831075,3.41049879 0.904394276,3.20735999 Z" id="Path" transform="translate(6.233918, 7.309034) rotate(6.000000) translate(-6.233918, -7.309034) "></path>
                </g>
            </g>
        </g>
    </g>
</svg>