<?xml version="1.0" encoding="UTF-8"?>
<svg width="60px" height="37px" viewBox="0 0 60 37" version="1.1"
    xmlns="http://www.w3.org/2000/svg"
    xmlns:xlink="http://www.w3.org/1999/xlink">
    <!-- Generator: Sketch 57.1 (83088) - https://sketch.com -->
    <title>Group</title>
    <desc>Created with Sketch.</desc>
    <defs>
        <path d="M12.4444536,2.62787567 C12.4444536,4.09203096 13.4535449,5.18591158 14.7998783,5.18591158 C16.1130896,5.18591158 17.1496572,4.0775671 17.1496572,2.65639012 C17.1496572,1.24471796 16.1198646,0.135546976 14.7998783,0.135546976 C13.4990876,0.135546976 12.4444536,1.25091676 12.4444536,2.62787567 Z" id="path-1"></path>
        <filter x="-31.9%" y="-29.7%" width="163.8%" height="159.4%" filterUnits="objectBoundingBox" id="filter-2">
            <feGaussianBlur stdDeviation="1" in="SourceAlpha" result="shadowBlurInner1"></feGaussianBlur>
            <feOffset dx="1" dy="1" in="shadowBlurInner1" result="shadowOffsetInner1"></feOffset>
            <feComposite in="shadowOffsetInner1" in2="SourceAlpha" operator="arithmetic" k2="-1" k3="1" result="shadowInnerInner1"></feComposite>
            <feColorMatrix values="0 0 0 0 0   0 0 0 0 0   0 0 0 0 0  0 0 0 0.5 0" type="matrix" in="shadowInnerInner1"></feColorMatrix>
        </filter>
    </defs>
    <g id="Hi-Fi-Flows-V1" stroke="none" stroke-width="1" fill="none" fill-rule="evenodd">
        <g id="C1---Account-and-Pay" transform="translate(-24.000000, -1277.000000)">
            <g id="Group" transform="translate(24.000000, 1278.000000)">
                <g id="mastercard-copy">
                    <g id="card" fill="#14457C">
                        <rect x="0.0215913221" y="0.164483132" width="54.9318246" height="34.4336452" rx="4.45544554"></rect>
                    </g>
                    <g id="logo" transform="translate(13.366337, 8.910891)">
                        <path d="M16.9718125,8.43588446 C16.9718125,13.0950246 13.1793372,16.8715023 8.50089349,16.8715023 C3.82204814,16.8715023 0.0293051439,13.0950246 0.0293051439,8.43588446 C0.0293051439,3.77687768 3.82204814,-5.68434189e-14 8.50089349,-5.68434189e-14 C13.1793372,-5.68434189e-14 16.9718125,3.77687768 16.9718125,8.43588446" id="Fill-2" fill="#D82332"></path>
                        <path d="M19.957304,1.70530257e-13 C17.7680863,1.70530257e-13 15.7737871,0.82693771 14.2701307,2.18352616 C13.9643658,2.46001637 13.6786818,2.75863647 13.4153545,3.07658689 L15.1266472,3.07658689 C15.3603887,3.36000936 15.5759235,3.65796289 15.7724484,3.97004756 L12.7691517,3.97004756 C12.5896287,4.25680284 12.4261703,4.55475637 12.2811863,4.86350822 L16.2604138,4.86350822 C16.3964283,5.15266313 16.5161103,5.45048336 16.6191922,5.75656896 L11.9224079,5.75656896 C11.8245471,6.04759024 11.7422155,6.34554377 11.6762163,6.64949637 L16.8649822,6.64949637 C16.989082,7.22540656 17.0552151,7.82291339 17.0552151,8.43588446 C17.0552151,9.37240508 16.9020649,10.2738645 16.6191922,11.1157332 L11.9224079,11.1157332 C12.0253559,11.4216855 12.1451718,11.7197724 12.2809186,12.0093272 L16.2604138,12.0093272 C16.1150282,12.3172792 15.9523731,12.6154993 15.771779,12.9026546 L12.7691517,12.9026546 C12.9651412,13.213806 13.1810776,13.5121595 13.4153545,13.795182 L15.1261117,13.795182 C14.8631861,14.1133991 14.5773682,14.4120192 14.2705323,14.6885094 C15.7740548,16.0450978 17.7680863,16.8715023 19.957304,16.8715023 C24.6357478,16.8715023 28.4284908,13.0950246 28.4284908,8.43588446 C28.4284908,3.77727762 24.6357478,1.70530257e-13 19.957304,1.70530257e-13" id="Fill-3" fill="#F1AB3E"></path>
                        <path d="M27.2054312,13.2433308 C27.2054312,12.997453 27.4050979,12.7980042 27.6511937,12.7980042 C27.8977255,12.7980042 28.0965203,12.997453 28.0965203,13.2433308 C28.0965203,13.4894266 27.8977255,13.6890933 27.6511937,13.6890933 C27.4050979,13.6890933 27.2054312,13.4894266 27.2054312,13.2433308 L27.2054312,13.2433308 Z M27.6511937,13.5822847 C27.8375639,13.5822847 27.9897117,13.4303549 27.9897117,13.2433308 C27.9897117,13.0556528 27.8375639,12.9050308 27.6511937,12.9050308 C27.4639517,12.9050308 27.3122398,13.0556528 27.3122398,13.2433308 C27.3122398,13.4303549 27.4639517,13.5822847 27.6511937,13.5822847 L27.6511937,13.5822847 Z M27.5908142,13.438856 L27.4992639,13.438856 L27.4992639,13.0480236 L27.6651443,13.0480236 C27.6993666,13.0480236 27.7346788,13.0480236 27.7651956,13.0667696 C27.7963663,13.0890032 27.8146763,13.1262773 27.8146763,13.1650771 C27.8146763,13.2093264 27.789173,13.250742 27.7466676,13.2664363 L27.8190359,13.438856 L27.7176767,13.438856 L27.6575151,13.2843104 L27.5908142,13.2843104 L27.5908142,13.438856 L27.5908142,13.438856 Z M27.5908142,13.2169556 L27.6413848,13.2169556 C27.6601308,13.2169556 27.6801847,13.2182635 27.6971868,13.2093264 C27.7120093,13.1995175 27.7200744,13.1820793 27.7200744,13.1642052 C27.7200744,13.1493828 27.7100475,13.1319446 27.6976228,13.1243155 C27.6814925,13.1149425 27.6562072,13.1169043 27.639205,13.1169043 L27.5908142,13.1169043 L27.5908142,13.2169556 L27.5908142,13.2169556 Z" id="registered" fill="#F1AB3E"></path>
                        <path d="M27.2054312,10.5775159 C27.2054312,10.3305482 27.4057299,10.1317533 27.6507576,10.1317533 C27.8975308,10.1317533 28.0965203,10.3305482 28.0965203,10.5775159 C28.0965203,10.8227398 27.8975308,11.0228424 27.6507576,11.0228424 C27.4057299,11.0228424 27.2054312,10.8227398 27.2054312,10.5775159 L27.2054312,10.5775159 Z M27.6507576,10.9160338 C27.8386194,10.9160338 27.9904798,10.764104 27.9904798,10.5775159 C27.9904798,10.3907098 27.8386194,10.2387799 27.6507576,10.2387799 C27.4637685,10.2387799 27.3123444,10.3907098 27.3123444,10.5775159 C27.3123444,10.764104 27.4637685,10.9160338 27.6507576,10.9160338 L27.6507576,10.9160338 Z M27.5907552,10.7721691 L27.4995517,10.7721691 L27.4995517,10.3813368 L27.6651581,10.3813368 C27.6998504,10.3813368 27.7347608,10.3826446 27.7650893,10.4013906 C27.7973814,10.4225344 27.8148367,10.4600264 27.8148367,10.4988262 C27.8148367,10.5430755 27.7893084,10.5844911 27.7476341,10.6001854 L27.8196368,10.7721691 L27.7181784,10.7721691 L27.6579579,10.6176236 L27.5907552,10.6176236 L27.5907552,10.7721691 L27.5907552,10.7721691 Z M27.5907552,10.5507047 L27.6413754,10.5507047 C27.6597034,10.5507047 27.681086,10.5524485 27.6972321,10.5430755 C27.712069,10.5337025 27.7197057,10.5149565 27.7197057,10.4979543 C27.7197057,10.4831319 27.7109781,10.4665657 27.6981049,10.4574107 C27.6823952,10.4486916 27.6566487,10.4510893 27.6396299,10.4510893 L27.5907552,10.4510893 L27.5907552,10.5507047 L27.5907552,10.5507047 Z" id="registered" fill="#FFFFFE"></path>
                        <path d="M26.3388742,6.53231465 L26.1344509,7.76852187 C25.8834399,7.43910657 25.6132851,7.20047712 25.2566486,7.20047712 C24.7925125,7.20047712 24.3702785,7.55082248 24.0936978,8.06674203 C23.7084127,7.98715444 23.3105435,7.85184221 23.3105435,7.85184221 L23.3102757,7.85517502 C23.3407987,7.56681999 23.3539182,7.39138068 23.3508391,7.33139004 L22.5059695,7.33139004 C22.3912407,8.4086887 22.1864157,9.49945194 22.0267058,10.5771505 L21.9844021,10.8112474 L22.9047758,10.8112474 C23.0288756,10.0081726 23.1237913,9.34054339 23.1939405,8.81182584 C23.5084071,8.52880331 23.6658412,8.28244172 23.9829852,8.29843923 C23.8424191,8.63731972 23.7602213,9.02739222 23.7602213,9.42759648 C23.7602213,10.2971942 24.2018669,10.8713713 24.8706941,10.8713713 C25.2077851,10.8713713 25.466293,10.7555227 25.7186428,10.4872979 L25.6752681,10.8109807 L26.5454396,10.8109807 L27.2458607,6.53231465 L26.3388742,6.53231465 L26.3388742,6.53231465 Z M25.1886414,10.0073727 C24.8756474,10.0073727 24.7172761,9.77620878 24.7172761,9.32134638 C24.7172761,8.63731972 25.0135361,8.15246199 25.430549,8.15246199 C25.7466221,8.15246199 25.9178451,8.39189132 25.9178451,8.83395572 C25.9178451,9.52384813 25.6166319,10.0073727 25.1886414,10.0073727 L25.1886414,10.0073727 Z" id="Fill-12" fill="#0C2D5A"></path>
                        <path d="M21.0519798,9.33974351 C20.9559932,9.32854526 20.9134217,9.32547907 20.8472887,9.32547907 C20.3261229,9.32547907 20.0622601,9.503318 20.0622601,9.85486318 C20.0622601,10.0712294 20.1910455,10.2097412 20.3918543,10.2097412 C20.7661619,10.2097412 21.0365845,9.85459655 21.0519798,9.33974351 L21.0519798,9.33974351 Z M21.7213425,10.8897685 L20.9594739,10.8897685 L20.9767434,10.5294247 C20.7442068,10.8140469 20.434158,10.950159 20.0131289,10.950159 C19.5143198,10.950159 19.1730787,10.5622195 19.1730787,9.99937398 C19.1730787,9.15177282 19.7669373,8.65824979 20.7874477,8.65824979 C20.8917344,8.65824979 21.0250714,8.66771498 21.1617553,8.68531223 C21.1902701,8.57013019 21.1979009,8.52120449 21.1979009,8.45881422 C21.1979009,8.22871677 21.0381909,8.1429968 20.6083262,8.1429968 C20.1585145,8.1376643 19.7878214,8.2492469 19.6348051,8.29897248 C19.6445778,8.24138146 19.7623856,7.51656116 19.7623856,7.51656116 C20.2207652,7.38271537 20.5227816,7.33218991 20.8629518,7.33218991 C21.6526659,7.33218991 22.0711515,7.68560147 22.0702144,8.35269744 C22.0719547,8.53146956 22.042235,8.75263507 21.9959151,9.04218991 C21.9161271,9.54571139 21.7449041,10.6271427 21.7213425,10.8897685 L21.7213425,10.8897685 Z" id="a" fill="#0C2D5A"></path>
                        <path d="M18.6260755,7.45883683 C18.8815043,7.45883683 19.1199313,7.52495985 19.447919,7.68973415 L19.5985256,6.76121229 C19.4633143,6.70842052 18.9892717,6.3990021 18.587654,6.3990021 C17.9723758,6.3990021 17.4514778,6.70348796 17.0860057,7.20487643 C16.552122,7.02890387 16.3324372,7.38458174 16.0636211,7.73919311 L15.8246587,7.79465113 C15.8427314,7.67800265 15.8591978,7.56202074 15.8539767,7.4447057 L15.0088394,7.4447057 C14.8938429,8.52200437 14.6894195,9.6127676 14.5293079,10.6904662 L14.4875397,10.924563 L15.4076457,10.924563 C15.5610636,9.93085133 15.6450017,9.29481718 15.6962749,8.86395104 L16.042737,8.67278085 C16.0948134,8.48067748 16.2563976,8.41615421 16.5813063,8.42401965 C16.5390025,8.6509176 16.5159765,8.88994699 16.5159765,9.13724176 C16.5159765,10.2758642 17.1335305,10.984687 18.1232502,10.984687 C18.3781435,10.984687 18.5972929,10.9513589 18.936392,10.8593732 L19.0974407,9.88432525 C18.7926129,10.033502 18.5429406,10.1037577 18.3164283,10.1037577 C17.7817413,10.1037577 17.4583053,9.71061901 17.4583053,9.06125361 C17.4583053,8.11886723 17.9391755,7.45883683 18.6260755,7.45883683" id="Fill-11" fill="#0C2D5A"></path>
                        <path d="M14.1711989,10.809381 C13.8571339,10.9050994 13.5536448,10.9504257 13.2330201,10.950159 C12.2094306,10.9494925 11.6762163,10.4169089 11.6762163,9.39786778 C11.6762163,8.20805333 12.3546824,7.33218991 13.2755916,7.33218991 C14.0299634,7.33218991 14.5111013,7.82251345 14.5111013,8.59212676 C14.5111013,8.84715366 14.4776331,9.09604818 14.3986483,9.44759336 L12.5781156,9.44759336 C12.5162665,9.95244796 12.8409074,10.1630818 13.3725153,10.1630818 C13.6995659,10.1630818 13.9948887,10.0956256 14.323412,9.94364933 L14.1711989,10.809381 L14.1711989,10.809381 Z M13.6573961,8.74583613 C13.6623493,8.67304748 13.7541859,8.12473299 13.2318153,8.12473299 C12.9407763,8.12473299 12.7326045,8.34616512 12.6477294,8.74583613 L13.6573961,8.74583613 L13.6573961,8.74583613 Z" id="e" fill="#0C2D5A"></path>
                        <path d="M11.3237183,10.8856358 C11.0721717,10.9645568 10.8759146,10.9988181 10.6631911,10.9988181 C10.1930308,10.9988181 9.93626322,10.7296601 9.93626322,10.2346706 C9.92983734,10.0802947 10.0041366,9.676491 10.062505,9.30694862 C10.1155186,8.9815327 10.4613113,6.93225228 10.4613113,6.93225228 L11.3753931,6.93225228 L11.2685628,7.45883683 L11.737786,7.45883683 L11.6128829,8.2949731 L11.1420532,8.2949731 C11.0358923,8.95726982 10.8843486,9.78114134 10.8826082,9.89045763 C10.8826082,10.0704296 10.9789965,10.1482841 11.1977442,10.1482841 C11.3024325,10.1482841 11.3835593,10.138019 11.4456761,10.1154892 L11.3237183,10.8856358" id="t" fill="#0C2D5A"></path>
                        <path d="M7.74036357,8.51013955 C7.74036357,8.95073751 7.95482739,9.25362361 8.44091859,9.48198799 C8.81321813,9.6563608 8.87078332,9.70795276 8.87078332,9.86606143 C8.87078332,10.0829609 8.70665558,10.1808123 8.34265614,10.1808123 C8.06821743,10.1808123 7.81305636,10.138419 7.51853677,10.0439004 C7.51853677,10.0439004 7.39805148,10.8105808 7.39229496,10.8468418 C7.60127,10.8924347 7.78775445,10.9340282 8.3492159,10.950159 C9.31979183,10.950159 9.7679971,10.5823497 9.7679971,9.78714041 C9.7679971,9.308815 9.58030779,9.02832541 9.11965238,8.81769159 C8.73409945,8.64105247 8.68978764,8.60199189 8.68978764,8.43935059 C8.68978764,8.25124659 8.84253621,8.15446168 9.13986713,8.15446168 C9.32019344,8.15446168 9.56692054,8.17445856 9.800662,8.20725345 L9.93158934,7.40031262 C9.69343009,7.3628518 9.33250972,7.33218991 9.12206208,7.33218991 C8.09325159,7.33218991 7.73728451,7.86730646 7.74036357,8.51013955" id="s" fill="#0C2D5A"></path>
                        <path d="M6.59441461,9.33974351 C6.49802638,9.32854526 6.45545491,9.32547907 6.38918801,9.32547907 C5.86788833,9.32547907 5.60402555,9.503318 5.60402555,9.85486318 C5.60402555,10.0712294 5.73281093,10.2097412 5.93375362,10.2097412 C6.30846286,10.2097412 6.57848378,9.85459655 6.59441461,9.33974351 L6.59441461,9.33974351 Z M7.26324183,10.8897685 L6.5013732,10.8897685 L6.51877663,10.5294247 C6.28637389,10.8140469 5.97619121,10.950159 5.55489432,10.950159 C5.05648685,10.950159 4.71484412,10.5622195 4.71484412,9.99937398 C4.71484412,9.15177282 5.30910434,8.65824979 6.32934698,8.65824979 C6.43376756,8.65824979 6.56737236,8.66771498 6.7041901,8.68531223 C6.73270495,8.57013019 6.74020181,8.52120449 6.74020181,8.45881422 C6.74020181,8.22871677 6.57995638,8.1429968 6.15049326,8.1429968 C5.7002799,8.1376643 5.32945296,8.2492469 5.17683826,8.29897248 C5.18647709,8.24138146 5.3044188,7.51656116 5.3044188,7.51656116 C5.76266451,7.38271537 6.06494871,7.33218991 6.40511884,7.33218991 C7.19483296,7.33218991 7.61305079,7.68560147 7.61224755,8.35269744 C7.61385402,8.53146956 7.58413432,8.75263507 7.53794829,9.04218991 C7.45802638,9.54571139 7.28666953,10.6271427 7.26324183,10.8897685 L7.26324183,10.8897685 Z" id="a" fill="#0C2D5A"></path>
                        <polyline id="m" fill="#0C2D5A" points="4.25258223 10.94416 3.33301174 10.94416 3.85993407 7.65507289 2.68359604 10.94416 2.0568048 10.94416 1.97929259 7.67413659 1.42559576 10.94416 0.564795313 10.94416 1.28382474 6.66562719 2.60635158 6.66562719 2.64316653 9.31428081 3.5355609 6.66562719 4.96384705 6.66562719 4.25258223 10.94416"></polyline>
                        <path d="M26.9114471,10.6775349 L26.0416772,10.6775349 L26.0847842,10.3537187 C25.8324344,10.6220769 25.5737927,10.7379255 25.2368355,10.7379255 C24.5684099,10.7379255 24.1263627,10.1644149 24.1263627,9.29388399 C24.1263627,8.13646449 24.811924,7.16088329 25.6226561,7.16088329 C25.9794265,7.16088329 26.2494474,7.30592734 26.5009939,7.63547595 L26.7050156,6.3990021 L27.6120021,6.3990021 L26.9114471,10.6775349 L26.9114471,10.6775349 Z M25.5547828,9.87352694 C25.9833088,9.87352694 26.2839865,9.39026896 26.2839865,8.70104311 C26.2839865,8.2588454 26.1127635,8.01874951 25.7965566,8.01874951 C25.3795436,8.01874951 25.0832837,8.50360723 25.0832837,9.18790052 C25.0832837,9.64342948 25.2420565,9.87352694 25.5547828,9.87352694 L25.5547828,9.87352694 Z" id="d-2" fill="#FFFFFE"></path>
                        <path d="M22.7735807,7.10292257 C22.6584503,8.17995461 22.4540269,9.27085116 22.2940493,10.3484164 L22.2521471,10.5825133 L23.1719854,10.5825133 C23.5009102,8.45457845 23.5801628,8.03930988 24.0963753,8.09116845 C24.1784392,7.65563637 24.3313216,7.27422919 24.445381,7.0819925 C24.0602297,7.00200497 23.8450965,7.21877117 23.563161,7.63070693 C23.5856515,7.45246806 23.6262149,7.27956169 23.6185842,7.10292257 L22.7735807,7.10292257" id="r-2" fill="#FFFFFE"></path>
                        <path d="M21.3197249,9.07311842 C21.2237383,9.06192017 21.1811668,9.05885398 21.1150338,9.05885398 C20.593868,9.05885398 20.3300052,9.23669291 20.3300052,9.58823809 C20.3300052,9.80460435 20.4587906,9.94311608 20.6595994,9.94311608 C21.033907,9.94311608 21.3043295,9.58797147 21.3197249,9.07311842 L21.3197249,9.07311842 Z M21.9890876,10.6231434 L21.227219,10.6231434 L21.2444885,10.2627996 C21.0119519,10.5474218 20.7019031,10.683534 20.280874,10.683534 C19.7820649,10.683534 19.4408238,10.2955944 19.4408238,9.73274889 C19.4408238,8.88514774 20.0346824,8.3916247 21.0551927,8.3916247 C21.1594795,8.3916247 21.2928165,8.40108989 21.4295004,8.41868714 C21.4580152,8.30350511 21.465646,8.2545794 21.465646,8.19218913 C21.465646,7.96209168 21.305936,7.87637172 20.8760713,7.87637172 C20.4262595,7.87103921 20.0555665,7.98262181 19.9025502,8.03234739 C19.9123229,7.97475637 20.0301307,7.24993607 20.0301307,7.24993607 C20.4885103,7.11609028 20.7905267,7.06556482 21.1306969,7.06556482 C21.920411,7.06556482 22.3388966,7.41897638 22.3379594,8.08607235 C22.3396998,8.26484447 22.3099801,8.48600998 22.2636602,8.77556482 C22.1838721,9.2790863 22.0126492,10.3605177 21.9890876,10.6231434 L21.9890876,10.6231434 Z" id="a-2" fill="#FFFFFE"></path>
                        <path d="M19.8455205,6.48792157 L19.6949138,7.41644344 C19.3665245,7.25206907 19.128633,7.18554611 18.8733381,7.18554611 C18.1867058,7.18554611 17.7051663,7.84637639 17.7051663,8.78889608 C17.7051663,9.43826148 18.0288701,9.8306003 18.563557,9.8306003 C18.7899355,9.8306003 19.0401432,9.76087784 19.3445694,9.61116785 L19.1829852,10.5862158 C18.8444216,10.6782015 18.6252722,10.7116629 18.3703789,10.7116629 C17.3801237,10.7116629 16.7633729,10.0027068 16.7633729,8.86435098 C16.7633729,7.33472285 17.6160071,6.26568956 18.8346489,6.26568956 C19.2362665,6.26568956 19.7105769,6.4351298 19.8455205,6.48792157" id="c-2" fill="#FFFFFE"></path>
                        <path d="M15.2772538,7.10292257 C15.1615879,8.17995461 14.9568968,9.27085116 14.7971869,10.3484164 L14.7552848,10.5825133 L15.6753908,10.5825133 C16.0045833,8.45457845 16.0835681,8.03930988 16.5989774,8.09116845 C16.6815768,7.65563637 16.8348609,7.27422919 16.9485186,7.0819925 C16.5636351,7.00200497 16.3482342,7.21877117 16.0668341,7.63070693 C16.0890569,7.45246806 16.129888,7.27956169 16.1217218,7.10292257 L15.2772538,7.10292257" id="r-3" fill="#FFFFFE"></path>
                        <path d="M14.438944,10.5427559 C14.124879,10.6384743 13.8213899,10.6838006 13.5007652,10.683534 C12.4771757,10.6828674 11.9439614,10.1502838 11.9439614,9.13124269 C11.9439614,7.94142824 12.6224274,7.06556482 13.5433367,7.06556482 C14.2977084,7.06556482 14.7788464,7.55588836 14.7788464,8.32550168 C14.7788464,8.58052857 14.7453782,8.82942309 14.6663934,9.18096827 L12.8458607,9.18096827 C12.7840116,9.68582287 13.1086525,9.89645669 13.6402604,9.89645669 C13.967311,9.89645669 14.2626338,9.82900055 14.591157,9.67702425 L14.438944,10.5427559 L14.438944,10.5427559 Z M13.9251412,8.47921104 C13.9300944,8.40642239 14.021931,7.8581079 13.4995603,7.8581079 C13.2085214,7.8581079 13.0003496,8.07954003 12.9154744,8.47921104 L13.9251412,8.47921104 L13.9251412,8.47921104 Z" id="e-2" fill="#FFFFFE"></path>
                        <path d="M11.5914633,10.6190107 C11.3399168,10.6979317 11.1436597,10.732193 10.9309362,10.732193 C10.4607758,10.732193 10.2040083,10.463035 10.2040083,9.96804553 C10.1975824,9.8136696 10.2718817,9.40986591 10.3302501,9.04032354 C10.3832636,8.71490762 10.7290564,6.66562719 10.7290564,6.66562719 L11.6431381,6.66562719 L11.5363078,7.19221174 L12.0055311,7.19221174 L11.880628,8.02834802 L11.4097983,8.02834802 C11.3036374,8.69064473 11.1520937,9.51451625 11.1503533,9.62383254 C11.1503533,9.80380447 11.2467415,9.881659 11.4654893,9.881659 C11.5701776,9.881659 11.6513044,9.87139393 11.7134212,9.84886411 L11.5914633,10.6190107" id="t-2" fill="#FFFFFE"></path>
                        <path d="M8.00810866,8.24351446 C8.00810866,8.68411242 8.22257247,8.98699852 8.70866367,9.21536291 C9.08096321,9.38973571 9.1385284,9.44132767 9.1385284,9.59943635 C9.1385284,9.81633585 8.97440067,9.91418726 8.61040123,9.91418726 C8.33596251,9.91418726 8.08080145,9.87179387 7.78628186,9.77727528 C7.78628186,9.77727528 7.66579657,10.5439557 7.66004005,10.5802167 C7.86901509,10.6258096 8.05549954,10.6674031 8.61696098,10.683534 C9.58753691,10.683534 10.0357422,10.3157246 10.0357422,9.52051532 C10.0357422,9.04218991 9.84805288,8.76170032 9.38739746,8.5510665 C9.00184454,8.37442738 8.95753273,8.3353668 8.95753273,8.1727255 C8.95753273,7.9846215 9.1102813,7.88783659 9.40761221,7.88783659 C9.58793853,7.88783659 9.83466562,7.90783348 10.0684071,7.94062836 L10.1993344,7.13368753 C9.96117518,7.09622671 9.6002548,7.06556482 9.38980717,7.06556482 C8.36099668,7.06556482 8.00502959,7.60068138 8.00810866,8.24351446" id="s-2" fill="#FFFFFE"></path>
                        <path d="M6.8621597,9.07311842 C6.76577147,9.06192017 6.7232,9.05885398 6.65693309,9.05885398 C6.13563341,9.05885398 5.87177063,9.23669291 5.87177063,9.58823809 C5.87177063,9.80460435 6.00055602,9.94311608 6.2014987,9.94311608 C6.57620795,9.94311608 6.84622886,9.58797147 6.8621597,9.07311842 L6.8621597,9.07311842 Z M7.53098692,10.6231434 L6.76911828,10.6231434 L6.78652171,10.2627996 C6.55411898,10.5474218 6.2439363,10.683534 5.82263941,10.683534 C5.32423193,10.683534 4.9825892,10.2955944 4.9825892,9.73274889 C4.9825892,8.88514774 5.57684942,8.3916247 6.59709206,8.3916247 C6.70151265,8.3916247 6.83511744,8.40108989 6.97193518,8.41868714 C7.00045003,8.30350511 7.0079469,8.2545794 7.0079469,8.19218913 C7.0079469,7.96209168 6.84770146,7.87637172 6.41823835,7.87637172 C5.96802499,7.87103921 5.59719805,7.98262181 5.44458335,8.03234739 C5.45422217,7.97475637 5.57216388,7.24993607 5.57216388,7.24993607 C6.03040959,7.11609028 6.33269379,7.06556482 6.67286392,7.06556482 C7.46257805,7.06556482 7.88079587,7.41897638 7.87999264,8.08607235 C7.88159911,8.26484447 7.8518794,8.48600998 7.80569337,8.77556482 C7.72577147,9.2790863 7.55441461,10.3605177 7.53098692,10.6231434 L7.53098692,10.6231434 Z" id="a-3" fill="#FFFFFE"></path>
                        <polyline id="m-2" fill="#FFFFFE" points="4.52032732 10.6775349 3.60075682 10.6775349 4.12767915 7.38844781 2.95134112 10.6775349 2.32454988 10.6775349 2.24703768 7.4075115 1.69334084 10.6775349 0.832540397 10.6775349 1.55156982 6.3990021 2.87409667 6.3990021 2.91091161 9.04765573 3.80330598 6.3990021 5.23159213 6.3990021 4.52032732 10.6775349"></polyline>
                    </g>
                </g>
              
                
                
            </g>
        </g>
    </g>
</svg>