<?xml version="1.0" encoding="UTF-8"?>
<svg width="60px" height="37px" viewBox="0 0 60 37" version="1.1"
    xmlns="http://www.w3.org/2000/svg"
    xmlns:xlink="http://www.w3.org/1999/xlink">
    <!-- Generator: Sketch 57.1 (83088) - https://sketch.com -->
    <title>Group</title>
    <desc>Created with Sketch.</desc>
    <defs>
        <path d="M12.4444536,2.62787567 C12.4444536,4.09203096 13.4535449,5.18591158 14.7998783,5.18591158 C16.1130896,5.18591158 17.1496572,4.0775671 17.1496572,2.65639012 C17.1496572,1.24471796 16.1198646,0.135546976 14.7998783,0.135546976 C13.4990876,0.135546976 12.4444536,1.25091676 12.4444536,2.62787567 Z" id="path-1"></path>
        <filter x="-31.9%" y="-29.7%" width="163.8%" height="159.4%" filterUnits="objectBoundingBox" id="filter-2">
            <feGaussianBlur stdDeviation="1" in="SourceAlpha" result="shadowBlurInner1"></feGaussianBlur>
            <feOffset dx="1" dy="1" in="shadowBlurInner1" result="shadowOffsetInner1"></feOffset>
            <feComposite in="shadowOffsetInner1" in2="SourceAlpha" operator="arithmetic" k2="-1" k3="1" result="shadowInnerInner1"></feComposite>
            <feColorMatrix values="0 0 0 0 0   0 0 0 0 0   0 0 0 0 0  0 0 0 0.5 0" type="matrix" in="shadowInnerInner1"></feColorMatrix>
        </filter>
    </defs>
    <g id="Hi-Fi-Flows-V1" stroke="none" stroke-width="1" fill="none" fill-rule="evenodd">
        <g id="C1---Account-and-Pay" transform="translate(-24.000000, -1277.000000)">
            <g id="Group" transform="translate(24.000000, 1278.000000)">
                
                <g id="visa-copy">
                    <g id="card" fill="#0066B2">
                        <rect x="0.0215913221" y="0.164483132" width="54.9318246" height="34.4336452" rx="4.45544554"></rect>
                    </g>
                    <g id="logo" transform="translate(13.366337, 12.475248)">
                        <g id="registered" transform="translate(26.355395, 7.722867)" fill="#FFFFFF">
                            <path d="M0.0692770371,0.513551846 C0.0692770371,0.258358169 0.268823423,0.0515360127 0.514821592,0.0515360127 C0.761255927,0.0515360127 0.960366146,0.258358169 0.960366146,0.513551846 C0.960366146,0.768519488 0.761255927,0.97556768 0.514821592,0.97556768 C0.268823423,0.97556768 0.0692770371,0.768519488 0.0692770371,0.513551846 L0.0692770371,0.513551846 Z M0.514821592,0.864358389 C0.702373386,0.864358389 0.853723323,0.707263964 0.853723323,0.513551846 C0.853723323,0.319161623 0.702373386,0.162519268 0.514821592,0.162519268 C0.328142131,0.162519268 0.17657411,0.319161623 0.17657411,0.513551846 C0.17657411,0.707263964 0.328142131,0.864358389 0.514821592,0.864358389 L0.514821592,0.864358389 Z M0.454848634,0.716079335 L0.363689738,0.716079335 L0.363689738,0.310346252 L0.528997018,0.310346252 C0.563454208,0.310346252 0.598347565,0.310798322 0.628879253,0.330689415 C0.660501358,0.353745 0.678384203,0.391944939 0.678384203,0.432179195 C0.678384203,0.478516399 0.652868436,0.521463076 0.610996407,0.537285536 L0.682527789,0.716079335 L0.58111897,0.716079335 L0.521800263,0.555368348 L0.454848634,0.555368348 L0.454848634,0.716079335 L0.454848634,0.716079335 Z M0.454848634,0.485975559 L0.505007835,0.485975559 C0.523981098,0.485975559 0.544262862,0.48778384 0.560837206,0.478516399 C0.575884967,0.468344818 0.583735972,0.449357866 0.583735972,0.431275054 C0.583735972,0.416356735 0.574576466,0.398273923 0.56170954,0.390362693 C0.545571363,0.380643182 0.520273679,0.382677498 0.503263167,0.382677498 L0.454848634,0.382677498 L0.454848634,0.485975559 L0.454848634,0.485975559 Z"></path>
                        </g>
                        <path d="M24.5049684,0.202489816 L26.2059317,8.7273473 L24.254939,8.7273473 L24.0059498,7.46133315 L21.3045219,7.46133315 L20.8616819,8.7273473 L18.6471352,8.7273473 L21.8156778,0.837489186 C21.8156778,0.837489186 22.0081416,0.202489816 22.7970695,0.202489816 L22.7970695,0.202489816 L24.5049684,0.202489816 Z M23.0332277,2.52116122 L21.916938,5.71209644 L23.6615958,5.71209644 L23.0332277,2.52116122 Z" id="a" fill="#FFFFFF"></path>
                        <path d="M18.8128968,2.25238225 L19.1163306,0.421642479 C19.1163306,0.421642479 18.1803673,0.0499885414 17.2052177,0.0499885414 C16.1506551,0.0499885414 13.6465459,0.531399929 13.6465459,2.87216771 C13.6465459,5.07492366 16.5858659,5.10245358 16.5858659,6.25834804 C16.5858659,7.41496697 13.9496329,7.20849256 13.0792113,6.47894965 L12.7636402,8.39264141 C12.7636402,8.39264141 13.7120876,8.87441504 15.1623278,8.87441504 C16.6118745,8.87441504 18.8000658,8.08981228 18.8000658,5.95588114 C18.8000658,3.73936024 15.8343904,3.53252359 15.8343904,2.56897634 C15.8343904,1.60506686 17.9039824,1.72895151 18.8128968,2.25238225" id="s" fill="#FFFFFF"></path>
                        <polyline id="i" fill="#FFFFFF" points="11.4541932 8.7273473 9.32946289 8.7273473 10.6572893 0.202489816 12.7827131 0.202489816 11.4541932 8.7273473"></polyline>
                        <path d="M9.82882826,0.202489816 L6.44805534,8.7273473 L4.2342022,8.7273473 L2.38836831,1.32070642 C2.69216367,1.51144421 3.00712588,1.7362866 3.31939259,2.00026613 C4.73886266,3.20052054 5.23783559,4.6844415 5.27411832,4.79681374 L5.27628063,4.8032468 L5.51625344,6.06600083 L7.54180422,0.202489816 L9.82882826,0.202489816 Z M2.21022442,1.21220728 L2.29876847,1.26522955 C2.31860112,1.27733847 2.33848804,1.28959286 2.35842525,1.30199414 C2.30875954,1.27135043 2.25930384,1.24133347 2.21022442,1.21220728 Z M1.81560669,0.991493069 L1.82949159,0.999209343 C1.81035989,0.989136654 1.79131869,0.979203874 1.77237222,0.969409477 L1.82951031,0.998799507 C1.82487044,0.996355789 1.82023588,0.993920317 1.81560669,0.991493069 Z M0.28167536,0.375806609 L0.320545635,0.386373009 C0.346895457,0.393702451 0.37635046,0.402133978 0.408714884,0.411738656 C0.359884024,0.397350095 0.317007097,0.385324312 0.28167536,0.375806609 Z M0.195380863,0.353639227 L0.222840179,0.36040028 C0.233008911,0.362961115 0.24447112,0.365900056 0.257180906,0.369233768 C0.230686212,0.362329564 0.210322263,0.357253355 0.195380863,0.353639227 Z M2.03507618,1.11105401 L2.13451181,1.16746985 L2.13451181,1.16746985 L2.21022442,1.21220728 C2.15126324,1.17721675 2.09284512,1.14351179 2.03507618,1.11105401 Z M1.97328766,1.07628615 L2.03507618,1.11105401 C1.99284742,1.08732757 1.95096555,1.06426756 1.90947201,1.04185898 C1.93070388,1.05292763 1.95194822,1.06452114 1.97328766,1.07628615 Z M1.69710153,0.930966309 C1.58760597,0.875721002 1.48155602,0.82515723 1.37980062,0.778967818 L1.51291705,0.840337144 C1.56178706,0.863543792 1.61150295,0.887722843 1.66197959,0.912905198 Z M0.953754566,0.599605671 C0.779831156,0.532090713 0.628179442,0.480230137 0.505590792,0.441566536 L0.461022185,0.427525963 C0.601620422,0.470657977 0.786748277,0.532970629 1.0040472,0.618950516 Z" id="v" fill="#FFFFFF"></path>
                        <path d="M5.27628063,4.80360904 L4.56121716,0.970067491 C4.56121716,0.970067491 4.47521535,0.202489816 3.5534701,0.202489816 L0.204601089,0.202489816 L0.165414779,0.346659667 C0.16576156,0.346659667 1.77552132,0.695130514 3.31939259,2.00026613 C4.79564146,3.24853072 5.27628063,4.80360904 5.27628063,4.80360904" id="shape" fill="#F9A533"></path>
                    </g>
                </g>
                
                
            </g>
        </g>
    </g>
</svg>