<?xml version="1.0" encoding="UTF-8"?>
<svg width="60px" height="37px" viewBox="0 0 60 37" version="1.1"
    xmlns="http://www.w3.org/2000/svg"
    xmlns:xlink="http://www.w3.org/1999/xlink">
    <!-- Generator: Sketch 57.1 (83088) - https://sketch.com -->
    <title>Group</title>
    <desc>Created with Sketch.</desc>
    <defs>
        <path d="M12.4444536,2.62787567 C12.4444536,4.09203096 13.4535449,5.18591158 14.7998783,5.18591158 C16.1130896,5.18591158 17.1496572,4.0775671 17.1496572,2.65639012 C17.1496572,1.24471796 16.1198646,0.135546976 14.7998783,0.135546976 C13.4990876,0.135546976 12.4444536,1.25091676 12.4444536,2.62787567 Z" id="path-1"></path>
        <filter x="-31.9%" y="-29.7%" width="163.8%" height="159.4%" filterUnits="objectBoundingBox" id="filter-2">
            <feGaussianBlur stdDeviation="1" in="SourceAlpha" result="shadowBlurInner1"></feGaussianBlur>
            <feOffset dx="1" dy="1" in="shadowBlurInner1" result="shadowOffsetInner1"></feOffset>
            <feComposite in="shadowOffsetInner1" in2="SourceAlpha" operator="arithmetic" k2="-1" k3="1" result="shadowInnerInner1"></feComposite>
            <feColorMatrix values="0 0 0 0 0   0 0 0 0 0   0 0 0 0 0  0 0 0 0.5 0" type="matrix" in="shadowInnerInner1"></feColorMatrix>
        </filter>
    </defs>
    <g id="Hi-Fi-Flows-V1" stroke="none" stroke-width="1" fill="none" fill-rule="evenodd">
        <g id="C1---Account-and-Pay" transform="translate(-24.000000, -1277.000000)">
            <g id="Group" transform="translate(24.000000, 1278.000000)">
                
                <g id="american-express-copy">
                    <g id="card" fill="#2E77BC">
                        <rect x="0.0215913221" y="0.164483132" width="54.9318246" height="34.4336452" rx="4.45544554"></rect>
                    </g>
                    <g id="logo" transform="translate(8.019802, 10.693069)" fill="#FFFFFF">
                        <path d="M3.70733232,3.60106467 L2.98254306,1.80265805 L2.26162968,3.60106467 L3.70733232,3.60106467 Z M19.6774214,2.88488625 C19.5318755,2.9748338 19.359733,2.97782751 19.1535096,2.97782751 L17.8668516,2.97782751 L17.8668516,1.97574925 L19.1710178,1.97574925 C19.3554562,1.97574925 19.5481809,1.98432216 19.6732782,2.05712388 C19.8106714,2.12298562 19.8956734,2.26273771 19.8956734,2.45596845 C19.8956734,2.65314544 19.814681,2.81194845 19.6774214,2.88488625 L19.6774214,2.88488625 Z M28.8561696,3.60106467 L28.1232277,1.80265805 L27.3944289,3.60106467 L28.8561696,3.60106467 L28.8561696,3.60106467 Z M11.746305,5.5477963 L10.6605245,5.5477963 L10.6565149,2.01439539 L9.1205979,5.5477963 L8.19065439,5.5477963 L6.65099512,2.0112656 L6.65099512,5.5477963 L4.49680865,5.5477963 L4.08984142,4.54149961 L1.88460027,4.54149961 L1.47348986,5.5477963 L0.32302224,5.5477963 L2.21979693,1.03626685 L3.7932699,1.03626685 L5.59475144,5.30775473 L5.59475144,1.03626685 L7.32325954,1.03626685 L8.70935384,4.09679676 L9.98278036,1.03626685 L11.7461714,1.03626685 L11.7461714,5.5477963 L11.746305,5.5477963 L11.746305,5.5477963 Z M16.0737901,5.5477963 L12.5355141,5.5477963 L12.5355141,1.03626685 L16.0737901,1.03626685 L16.0737901,1.97574925 L13.5948317,1.97574925 L13.5948317,2.78895127 L16.0143154,2.78895127 L16.0143154,3.71373724 L13.5948317,3.71373724 L13.5948317,4.61470957 L16.0737901,4.61470957 L16.0737901,5.5477963 L16.0737901,5.5477963 Z M21.0623128,2.25130716 C21.0623128,2.97075146 20.5909258,3.34224435 20.3160058,3.4538283 C20.5477566,3.54363976 20.7458273,3.70230669 20.8400513,3.83375802 C20.9894731,4.05815062 21.0152677,4.25859349 21.0152677,4.66152039 L21.0152677,5.5477963 L19.9469954,5.5477963 L19.9429859,4.97885425 C19.9429859,4.70737867 19.9685132,4.31697094 19.7757885,4.09992656 C19.6211543,3.94125963 19.3851267,3.9068319 19.0039541,3.9068319 L17.8669852,3.9068319 L17.8669852,5.5477963 L16.8078012,5.5477963 L16.8078012,1.03626685 L19.2439913,1.03626685 C19.7851441,1.03626685 20.1840923,1.05096328 20.5263724,1.25235869 C20.8614354,1.45402626 21.0623128,1.74809078 21.0623128,2.25130716 L21.0623128,2.25130716 Z M21.6767064,1.03626685 L22.7574082,1.03626685 L22.7574082,5.5477963 L21.6767064,5.5477963 L21.6767064,1.03626685 Z M35.2948055,5.5477963 L33.7940387,5.5477963 L31.7863337,2.16163177 L31.7863337,5.5477963 L29.6294742,5.5477963 L29.2172946,4.54149961 L27.0171322,4.54149961 L26.6172485,5.5477963 L25.3777693,5.5477963 C24.8630794,5.5477963 24.2112635,5.43185785 23.8421195,5.04879833 C23.4699016,4.66573881 23.2761076,4.14700954 23.2761076,3.3264593 C23.2761076,2.65736386 23.391983,2.04569333 23.8471983,1.56234433 C24.1894784,1.20228199 24.7256862,1.03626685 25.4555542,1.03626685 L26.4810581,1.03626685 L26.4810581,2.00296484 L25.477072,2.00296484 C25.090687,2.00296484 24.8724349,2.06147838 24.6622019,2.27035808 C24.4815058,2.46018687 24.3576114,2.81929666 24.3576114,3.29216765 C24.3576114,3.77551665 24.451969,4.12414844 24.6489705,4.35167083 C24.8120247,4.53020514 25.1081953,4.58436418 25.3869912,4.58436418 L25.862655,4.58436418 L27.3555365,1.03640293 L28.9425082,1.03640293 L30.7357034,5.30367239 L30.7357034,1.03640293 L32.3482024,1.03640293 L34.2099605,4.17857963 L34.2099605,1.03640293 L35.2948055,1.03640293 L35.2948055,5.5477963 L35.2948055,5.5477963 Z M0.310726349,6.4340722 L2.1203606,6.4340722 L2.52839704,5.43185785 L3.44190147,5.43185785 L3.8488687,6.4340722 L7.40959808,6.4340722 L7.40959808,5.66781708 L7.7274201,6.43720199 L9.57581314,6.43720199 L9.89363516,5.65638653 L9.89363516,6.4340722 L18.7423991,6.4340722 L18.7381223,4.78902546 L18.9094629,4.78902546 C19.0292141,4.79324388 19.0643644,4.80453835 19.0643644,5.00620592 L19.0643644,6.4340722 L23.6409748,6.4340722 L23.6409748,6.05101268 C24.0101188,6.25240809 24.5842834,6.4340722 25.3398124,6.4340722 L27.2650547,6.4340722 L27.6771007,5.43185785 L28.5906052,5.43185785 L28.9936965,6.4340722 L32.7038477,6.4340722 L32.7038477,5.48207063 L33.26585,6.4340722 L36.2390497,6.4340722 L36.2390497,0.141690194 L33.2964561,0.141690194 L33.2964561,0.884812058 L32.8844101,0.141690194 L29.8651009,0.141690194 L29.8651009,0.884812058 L29.486735,0.141690194 L25.408509,0.141690194 C24.7256862,0.141690194 24.1257269,0.238713796 23.6409748,0.509100748 L23.6409748,0.141690194 L20.8264189,0.141690194 L20.8264189,0.509100748 C20.5180861,0.230413039 20.0976201,0.141690194 19.6302426,0.141690194 L9.34820552,0.141690194 L8.65816552,1.76686954 L7.94981533,0.141690194 L4.71105117,0.141690194 L4.71105117,0.884812058 L4.35527226,0.141690194 L1.59324114,0.141690194 L0.310592699,3.13336465 L0.310592699,6.4340722 L0.310726349,6.4340722 L0.310726349,6.4340722 Z" id="Fill-7"></path>
                        <path d="M37.6879508,9.64622826 L35.7574961,9.64622826 C35.5649051,9.64622826 35.4368674,9.65344039 35.3288774,9.72760289 C35.2171452,9.80081285 35.1741096,9.90913092 35.1741096,10.052285 C35.1741096,10.2226546 35.2684672,10.3383209 35.4057267,10.3885337 C35.517459,10.4281323 35.6376112,10.4395629 35.8138968,10.4395629 L36.3879278,10.4552119 C36.9671711,10.4697722 37.3539571,10.5711503 37.5895837,10.8185401 C37.6326193,10.8528317 37.6582803,10.891614 37.6879508,10.930124 L37.6879508,9.64622826 Z M37.6879508,12.6213012 C37.4306727,13.0043607 36.9293479,13.1984079 36.2506682,13.1984079 L34.20514,13.1984079 L34.20514,12.2308935 L36.2422482,12.2308935 C36.4443285,12.2308935 36.5858649,12.2038139 36.6708669,12.1190374 C36.7446422,12.0493654 36.7962315,11.9478513 36.7962315,11.8247007 C36.7962315,11.6932494 36.7446422,11.5890136 36.6667237,11.5262817 C36.5900081,11.4574262 36.4781422,11.4261283 36.2935702,11.4261283 C35.2992069,11.3918366 34.0585249,11.4574262 34.0585249,10.0294239 C34.0585249,9.37488876 34.4665613,8.68592594 35.5781365,8.68592594 L37.6878172,8.68592594 L37.6878172,7.7880834 L35.7276919,7.7880834 C35.1361527,7.7880834 34.7063312,7.93246214 34.4021415,8.15658258 L34.4021415,7.7880834 L31.5027172,7.7880834 C31.0392156,7.7880834 30.4948552,7.90511047 30.237577,8.15658258 L30.237577,7.7880834 L25.0600718,7.7880834 L25.0600718,8.15658258 C24.6480258,7.85408123 23.9527734,7.7880834 23.6320111,7.7880834 L20.2169613,7.7880834 L20.2169613,8.15658258 C19.8909865,7.83516639 19.1660636,7.7880834 18.7240799,7.7880834 L14.9020628,7.7880834 L14.0274508,8.75178768 L13.2084376,7.7880834 L7.49913512,7.7880834 L7.49913512,14.0846838 L13.1009822,14.0846838 L14.0020571,13.1058749 L14.8511418,14.0846838 L18.3040148,14.0878136 L18.3040148,12.6067409 L18.643622,12.6067409 C19.1016439,12.6138169 19.6419948,12.5950381 20.1188615,12.385342 L20.1188615,14.0846838 L22.9668302,14.0846838 L22.9668302,12.4434473 L23.104357,12.4434473 C23.2795735,12.4434473 23.2969481,12.4509316 23.2969481,12.6293298 L23.2969481,14.0844117 L31.9488442,14.0844117 C32.4982834,14.0844117 33.072448,13.9412576 33.39027,13.6814848 L33.39027,14.0844117 L36.1347928,14.0844117 C36.7057498,14.0844117 37.263609,14.002901 37.6879508,13.7941573 L37.6879508,12.6213012 L37.6879508,12.6213012 Z M33.4629761,10.8185401 C33.6691996,11.0357205 33.7798626,11.3100538 33.7798626,11.7744879 C33.7798626,12.7452682 33.1841802,13.1984079 32.1159079,13.1984079 L30.0531387,13.1984079 L30.0531387,12.2308935 L32.1077552,12.2308935 C32.3086326,12.2308935 32.4509709,12.2038139 32.5402498,12.1190374 C32.6130895,12.0493654 32.6654807,11.9478513 32.6654807,11.8247007 C32.6654807,11.6932494 32.6089464,11.5888775 32.5362402,11.5262817 C32.4551141,11.4574262 32.3433819,11.4261283 32.1590772,11.4261283 C31.1684561,11.3918366 29.9280414,11.4574262 29.9280414,10.0294239 C29.9280414,9.37488876 30.3320683,8.68592594 31.442307,8.68592594 L33.5657537,8.68592594 L33.5657537,9.64650042 L31.6228694,9.64650042 C31.4301447,9.64650042 31.3050474,9.65371255 31.1983939,9.72787505 C31.0825185,9.80094893 31.0394829,9.90940308 31.0394829,10.0525571 C31.0394829,10.2229268 31.1379837,10.338593 31.2712337,10.3888058 C31.3829659,10.4284045 31.5028509,10.4398351 31.6834133,10.4398351 L32.2535684,10.455484 C32.8284013,10.4697722 33.2230726,10.5711503 33.4629761,10.8185401 L33.4629761,10.8185401 Z M23.9059956,10.5397163 C23.7641919,10.6253093 23.5891091,10.6327936 23.3828857,10.6327936 L22.0963613,10.6327936 L22.0963613,9.61928482 L23.4003939,9.61928482 C23.5891091,9.61928482 23.7778243,9.62336716 23.9059956,9.70065945 C24.0432551,9.77373333 24.1251832,9.9136215 24.1251832,10.1065801 C24.1251832,10.2998108 24.0432551,10.4552119 23.9059956,10.5397163 L23.9059956,10.5397163 Z M24.5456492,11.1013101 C24.7812758,11.190033 24.9741342,11.3486999 25.0643486,11.4801512 C25.2140377,11.7004615 25.2356892,11.9060753 25.2398324,12.3039673 L25.2398324,13.1984079 L24.1766388,13.1984079 L24.1766388,12.6338204 C24.1766388,12.3624809 24.2021662,11.9603704 24.0054319,11.7506743 C23.8506641,11.5888775 23.6147701,11.5502314 23.2282515,11.5502314 L22.096495,11.5502314 L22.096495,13.1984079 L21.0322322,13.1984079 L21.0322322,8.68578986 L23.4775106,8.68578986 C24.0135846,8.68578986 24.4041128,8.70987566 24.7518726,8.89888798 C25.0861337,9.10436573 25.2963667,9.38604716 25.2963667,9.90083017 C25.2962331,10.6210909 24.8244451,10.9886376 24.5456492,11.1013101 L24.5456492,11.1013101 Z M25.8836291,8.68578986 L29.4185639,8.68578986 L29.4185639,9.61914874 L26.938269,9.61914874 L26.938269,10.4395629 L29.3578863,10.4395629 L29.3578863,11.3601305 L26.938269,11.3601305 L26.938269,12.257973 L29.4185639,12.2620553 L29.4185639,13.1984079 L25.8836291,13.1984079 L25.8836291,8.68578986 L25.8836291,8.68578986 Z M18.7377123,10.7683273 L17.3688589,10.7683273 L17.3688589,9.61928482 L18.7500081,9.61928482 C19.1323836,9.61928482 19.3976808,9.77795175 19.3976808,10.1724418 C19.3976808,10.5628496 19.1446795,10.7683273 18.7377123,10.7683273 L18.7377123,10.7683273 Z M16.3140854,12.7879967 L14.6879539,10.9498553 L16.3140854,9.17022748 L16.3140854,12.7879967 L16.3140854,12.7879967 Z M12.114638,12.257973 L9.51058234,12.257973 L9.51058234,11.3601305 L11.8357084,11.3601305 L11.8357084,10.4395629 L9.51058234,10.4395629 L9.51058234,9.61914874 L12.16596,9.61914874 L13.3244467,10.9342064 L12.114638,12.257973 L12.114638,12.257973 Z M20.534917,10.1724418 C20.534917,11.4261283 19.6163338,11.6848125 18.6903998,11.6848125 L17.3688589,11.6848125 L17.3688589,13.1984079 L15.3102329,13.1984079 L14.0060667,11.7046799 L12.6508457,13.1984079 L8.45540787,13.1984079 L8.45540787,8.68578986 L12.7152655,8.68578986 L14.0183625,10.1649575 L15.3655644,8.68578986 L18.7500081,8.68578986 C19.5905391,8.68578986 20.534917,8.92270163 20.534917,10.1724418 L20.534917,10.1724418 Z" id="Fill-6"></path>
                    </g>
                </g>
            </g>
        </g>
    </g>
</svg>