<?xml version="1.0" encoding="UTF-8"?>
<svg width="32px" height="32px" viewBox="0 0 32 32" version="1.1" xmlns="http://www.w3.org/2000/svg" xmlns:xlink="http://www.w3.org/1999/xlink">
    <!-- Generator: Sketch 57.1 (83088) - https://sketch.com -->
    <title>Faxicon</title>
    <desc>Created with Sketch.</desc>
    <g id="Hi-Fi-Flows-V1" stroke="none" stroke-width="1" fill="none" fill-rule="evenodd">
        <g id="A1---Local---Choose-your-number" transform="translate(-62.000000, -482.000000)">
            <g id="Group-4" transform="translate(62.000000, 482.000000)">
                <g id="Faxicon">
                    <circle id="Oval" fill="#231F20" cx="16" cy="16" r="16"></circle>
                    <g id="fax" transform="translate(8.000000, 8.000000)" fill="#FFFFFF" fill-rule="nonzero">
                        <path d="M12.8479818,9.1598104 C13.0322266,9.1598104 13.1813151,9.0105591 13.1813151,8.82647707 C13.1813151,8.64239503 13.0322266,8.49314373 12.8479818,8.49314373 L3.15039063,8.49314373 C2.96614583,8.49314373 2.8170573,8.64239503 2.8170573,8.82647707 C2.8170573,9.0105591 2.96614583,9.1598104 3.15039063,9.1598104 L3.75720217,9.1598104 L3.75720217,15.1333211 C3.75720217,15.3166504 3.90386963,15.4666545 4.0905355,15.4666545 L11.4938762,15.4666545 C11.6772054,15.4666545 11.8272095,15.3166504 11.8272095,15.1333211 L11.8272095,9.1598104 L12.8479818,9.1598104 Z M9.7623698,14.0185343 L5.8763021,14.0185343 C5.6920573,14.0185343 5.54296877,13.869283 5.54296877,13.685201 C5.54296877,13.501119 5.6920573,13.3518677 5.8763021,13.3518677 L9.7623698,13.3518677 C9.9466146,13.3518677 10.0957031,13.501119 10.0957031,13.685201 C10.0957031,13.869283 9.9466146,14.0185343 9.7623698,14.0185343 Z M9.7623698,12.3255005 L5.8763021,12.3255005 C5.6920573,12.3255005 5.54296877,12.1762492 5.54296877,11.9921672 C5.54296877,11.8080851 5.6920573,11.6588338 5.8763021,11.6588338 L9.7623698,11.6588338 C9.9466146,11.6588338 10.0957031,11.8080851 10.0957031,11.9921672 C10.0957031,12.1762492 9.9466146,12.3255005 9.7623698,12.3255005 Z M9.7623698,10.6326294 L5.8763021,10.6326294 C5.6920573,10.6326294 5.54296877,10.4833781 5.54296877,10.2992961 C5.54296877,10.115214 5.6920573,9.96596273 5.8763021,9.96596273 L9.7623698,9.96596273 C9.9466146,9.96596273 10.0957031,10.115214 10.0957031,10.2992961 C10.0957031,10.4833781 9.9466146,10.6326294 9.7623698,10.6326294 Z" id="Shape"></path>
                        <path d="M11.8272095,0.333333333 C11.8272095,0.149983733 11.6772054,0 11.4938761,0 L4.09053547,0 C3.9038696,0 3.75720213,0.149983733 3.75720213,0.333333333 L3.75720213,4.39190673 L11.8272095,4.39190673 L11.8272095,0.333333333 Z" id="Path"></path>
                        <path d="M14.8642578,5.0585734 L1.13541667,5.0585734 C0.5094401,5.0585734 0,5.59405517 0,6.25242107 L0,10.6617635 C0,11.318339 0.5094401,11.852356 1.13541667,11.852356 L3.0904948,11.852356 L3.0904948,9.82041423 C2.56738283,9.788737 2.15039063,9.35740153 2.15039063,8.82647707 C2.15039063,8.27504477 2.59895833,7.82647707 3.15039063,7.82647707 L12.8479818,7.82647707 C13.3994141,7.82647707 13.8479818,8.27504477 13.8479818,8.82647707 C13.8479818,9.37790937 13.3994141,9.82647707 12.8479818,9.82647707 L12.4938151,9.82647707 L12.4938151,11.852356 L14.8642578,11.852356 C15.4905599,11.852356 16,11.318339 16,10.6617635 L16,6.25242107 C16,5.59405517 15.4905599,5.0585734 14.8642578,5.0585734 Z M2.23046877,7.13995363 C2.17057293,7.20326743 2.08365887,7.23663333 1.99381513,7.23663333 C1.9072266,7.23663333 1.82031253,7.20326743 1.7604167,7.13995363 C1.69726567,7.07989503 1.6604818,6.9933065 1.6604818,6.9033 C1.6604818,6.8165487 1.69726567,6.72996017 1.7604167,6.66990157 C1.8837891,6.54652917 2.1070964,6.54327397 2.2304688,6.66990157 C2.29394537,6.72996017 2.3304037,6.8165487 2.3304037,6.9033 C2.3304037,6.99330647 2.2939453,7.07989503 2.23046877,7.13995363 Z M3.82714843,7.13995363 C3.7672526,7.20326743 3.68033853,7.23663333 3.59375,7.23663333 C3.50390623,7.23663333 3.4169922,7.20326743 3.35709637,7.13995363 C3.29394533,7.07663983 3.26041667,6.9933065 3.26041667,6.9033 C3.26041667,6.8165487 3.2939453,6.72996017 3.35709637,6.66990157 C3.48046877,6.54327397 3.70377607,6.54327397 3.82714847,6.66990157 C3.89062503,6.73321537 3.92708337,6.8165487 3.92708337,6.9033 C3.92708337,6.99330647 3.890625,7.0766398 3.82714843,7.13995363 Z M13.9010417,7.23809813 L13.1025391,7.23809813 C12.9182943,7.23809813 12.7692057,7.08884683 12.7692057,6.9047648 C12.7692057,6.72068277 12.9182943,6.57143147 13.1025391,6.57143147 L13.9010417,6.57143147 C14.0852865,6.57143147 14.234375,6.72068277 14.234375,6.9047648 C14.234375,7.08884683 14.0852865,7.23809813 13.9010417,7.23809813 Z" id="Shape"></path>
                    </g>
                </g>
            </g>
        </g>
    </g>
</svg>