<?xml version="1.0" encoding="UTF-8"?>
<svg width="36px" height="22px" viewBox="0 0 36 22" version="1.1" xmlns="http://www.w3.org/2000/svg" xmlns:xlink="http://www.w3.org/1999/xlink">
    <!-- Generator: Sketch 57.1 (83088) - https://sketch.com -->
    <title>Server</title>
    <desc>Created with Sketch.</desc>
    <defs>
        <polygon id="path-1" points="0 0 35.9739574 0 35.9739574 21.1914894 0 21.1914894"></polygon>
    </defs>
    <g id="Symbols" stroke="none" stroke-width="1" fill="none" fill-rule="evenodd">
        <g id="Value-Prop-Rotation-3" transform="translate(-16.000000, -18.000000)">
            <g id="Group-2" transform="translate(16.000000, 18.000000)">
                <g id="Server">
                    <mask id="mask-2" fill="white">
                        <use xlink:href="#path-1"></use>
                    </mask>
                    <g id="Clip-2"></g>
                    <path d="M23.6714043,19.5825532 L25.9692766,19.5825532 L25.9692766,18.5825532 L23.6714043,18.5825532 L23.6714043,19.5825532 Z M26.592,16.54 L9.444,16.54 C9.13531915,16.54 9.37353191,16.9508526 9.37353191,17.1435684 L9.37353191,20.5119789 C9.37353191,20.8008105 9.13531915,21.14 9.444,21.14 L26.592,21.14 C26.8018723,21.14 27.2458723,20.8008105 27.2458723,20.5119789 L27.2458723,17.1435684 C27.2458723,16.9508526 26.8018723,16.54 26.592,16.54 L26.592,16.54 Z" id="Fill-1" fill="#231F20" mask="url(#mask-2)"></path>
                    <path d="M23.6714043,13.787234 L25.9692766,13.787234 L25.9692766,12.5106383 L23.6714043,12.5106383 L23.6714043,13.787234 Z M27.2458723,11.3228936 C27.2458723,11.0182979 26.8018723,10.9787234 26.592,10.9787234 L9.444,10.9787234 C9.13531915,10.9787234 9.37353191,11.0182979 9.37353191,11.3228936 L9.37353191,14.8748936 C9.37353191,15.0781277 9.13531915,15.5744681 9.444,15.5744681 L26.592,15.5744681 C26.8018723,15.5744681 27.2458723,15.0781277 27.2458723,14.8748936 L27.2458723,11.3228936 Z" id="Fill-3" fill="#231F20" mask="url(#mask-2)"></path>
                    <path d="M23.6714043,8.17021277 L25.9692766,8.17021277 L25.9692766,7.14893617 L23.6714043,7.14893617 L23.6714043,8.17021277 Z M27.2458723,5.94229787 C27.2458723,5.73931915 26.8018723,5.61702128 26.592,5.61702128 L9.444,5.61702128 C9.13531915,5.61702128 9.37353191,5.73931915 9.37353191,5.94229787 L9.37353191,9.49455319 C9.37353191,9.79889362 9.13531915,9.95744681 9.444,9.95744681 L26.592,9.95744681 C26.8018723,9.95744681 27.2458723,9.79889362 27.2458723,9.49455319 L27.2458723,5.94229787 Z" id="Fill-4" fill="#231F20" mask="url(#mask-2)"></path>
                    <path d="M23.6714043,2.80851064 L25.9692766,2.80851064 L25.9692766,1.53191489 L23.6714043,1.53191489 L23.6714043,2.80851064 Z M27.2458723,0.37506383 C27.2458723,0.171829787 26.7357447,0 26.5258723,0 L9.37787234,0 C9.06919149,0 9.37353191,0.171829787 9.37353191,0.37506383 L9.37353191,3.92706383 C9.37353191,4.23140426 9.06919149,4.34042553 9.37787234,4.34042553 L26.5258723,4.34042553 C26.7357447,4.34042553 27.2458723,4.23140426 27.2458723,3.92706383 L27.2458723,0.37506383 Z" id="Fill-5" fill="#231F20" mask="url(#mask-2)"></path>
                    <path d="M33.1062128,18.1610809 L33.1062128,18.1557191 C33.1062128,18.1488255 33.1062128,18.1416766 33.1059574,18.1345277 C33.1028936,18.0763149 33.0885957,18.0209106 33.0648511,17.9711234 L32.5161702,16.737166 C34.6881702,15.1779319 35.9739574,12.6801447 35.9739574,9.98269787 C35.9739574,6.61886809 33.9686809,3.60508085 30.8650213,2.30474043 C30.7588085,2.26031489 30.6393191,2.26005957 30.5328511,2.30371915 C30.426383,2.3471234 30.341617,2.43137872 30.2971915,2.53759149 L29.7025532,3.95665532 C29.6803404,4.01027234 29.6688511,4.06720851 29.6688511,4.12414468 C29.6688511,4.18031489 29.6798298,4.23597447 29.7012766,4.28882553 C29.7449362,4.39529362 29.8291915,4.48005957 29.9351489,4.52474043 C32.141617,5.44874043 33.5675745,7.5911234 33.5675745,9.98269787 C33.5675745,11.7152936 32.8064681,13.3567404 31.5084255,14.4712085 L31.0904681,13.5318894 C31.0238298,13.3817617 30.8775319,13.2821872 30.7131064,13.274783 C30.5486809,13.267634 30.3944681,13.3541872 30.3148085,13.4979319 L28.3557447,17.0330809 C28.319234,17.0984426 28.3011064,17.1709532 28.3011064,17.2434638 C28.3011064,17.3037191 28.313617,17.3634638 28.3386383,17.4198894 C28.3937872,17.5442298 28.5043404,17.6351234 28.6371064,17.6662723 L32.5585532,18.5749532 C32.5950638,18.5846553 32.6331064,18.590017 32.6724255,18.590017 C32.910383,18.590017 33.1039149,18.3985277 33.1062128,18.1610809" id="Fill-6" fill="#231F20" mask="url(#mask-2)"></path>
                    <path d="M2.86771915,2.70005106 L2.86771915,2.70541277 C2.86771915,2.71230638 2.86771915,2.71945532 2.86822979,2.72660426 C2.8710383,2.78481702 2.88559149,2.83996596 2.90908085,2.89000851 L3.45801702,4.12396596 C1.2857617,5.6832 -2.55319149e-05,8.18098723 -2.55319149e-05,10.8781787 C-2.55319149e-05,14.2422638 2.00550638,17.2560511 5.10916596,18.5563915 C5.2151234,18.6005617 5.33461277,18.6010723 5.44108085,18.5574128 C5.54780426,18.5140085 5.63257021,18.4297532 5.67674043,18.3235404 L6.27137872,16.9042213 C6.29384681,16.8508596 6.30508085,16.7936681 6.30508085,16.7367319 C6.30508085,16.680817 6.29410213,16.6251574 6.27265532,16.5723064 C6.22899574,16.465583 6.14499574,16.3810723 6.03878298,16.3363915 C3.83231489,15.4123915 2.40635745,13.2697532 2.40635745,10.8781787 C2.40635745,9.14558298 3.16746383,7.50439149 4.4657617,6.3899234 L4.88346383,7.32898723 C4.95010213,7.47937021 5.0964,7.57894468 5.26082553,7.58634894 C5.42525106,7.59349787 5.57971915,7.50694468 5.65937872,7.3632 L7.61844255,3.82779574 C7.65469787,3.76268936 7.67282553,3.69017872 7.67282553,3.61766809 C7.67282553,3.55741277 7.66031489,3.49741277 7.63529362,3.44124255 C7.58014468,3.31690213 7.46959149,3.22600851 7.33682553,3.19485957 L3.41537872,2.28617872 C3.37886809,2.27622128 3.34108085,2.27111489 3.30150638,2.27111489 C3.06354894,2.27111489 2.87027234,2.46260426 2.86771915,2.70005106" id="Fill-7" fill="#231F20" mask="url(#mask-2)"></path>
                </g>
            </g>
        </g>
    </g>
</svg>