<?xml version="1.0" encoding="UTF-8"?>
<svg width="34px" height="25px" viewBox="0 0 34 25" version="1.1" xmlns="http://www.w3.org/2000/svg" xmlns:xlink="http://www.w3.org/1999/xlink">
    <!-- Generator: Sketch 57.1 (83088) - https://sketch.com -->
    <title>Group 6</title>
    <desc>Created with Sketch.</desc>
    <defs>
        <polygon id="path-1" points="5.27131783e-05 0.0708102981 33.9346357 0.0708102981 33.9346357 24.0486736 5.27131783e-05 24.0486736"></polygon>
    </defs>
    <g id="Symbols" stroke="none" stroke-width="1" fill="none" fill-rule="evenodd">
        <g id="Value-Prop-Rotation" transform="translate(-39.000000, -17.000000)">
            <g id="Group-6" transform="translate(39.000000, 17.000000)">
                <path d="M17.0364951,18.2439024 L17.0364951,15.8885222 C17.0364951,15.7394824 17.4146341,15.4151829 17.4146341,15.0367875 C17.4146341,14.5181843 17.001478,14.097561 16.5742241,14.097561 C16.1467427,14.097561 15.7560976,14.5181843 15.7560976,15.0367875 C15.7560976,15.3964149 16.1269603,15.7058104 16.1269603,15.8631302 L16.1269603,18.2439024" id="Fill-1" fill="#231F20"></path>
                <g id="Group-5">
                    <mask id="mask-2" fill="white">
                        <use xlink:href="#path-1"></use>
                    </mask>
                    <g id="Clip-4"></g>
                    <path d="M22.2067969,19.1876134 C22.2067969,19.4826118 22.0586729,20.0405435 21.7674326,20.0405435 L11.9208744,20.0405435 C11.6298977,20.0405435 11.4005953,19.4826118 11.4005953,19.1876134 L11.4005953,12.2800021 C11.4005953,11.9847365 11.6298977,12.0242834 11.9208744,12.0242834 L21.7674326,12.0242834 C22.0586729,12.0242834 22.2067969,11.9847365 22.2067969,12.2800021 L22.2067969,19.1876134 Z M12.4548589,9.55393919 C12.4548589,7.09882591 14.3817891,5.10117388 16.8036961,5.10117388 C19.2253395,5.10117388 21.1525333,7.09882591 21.1525333,9.55393919 L21.1525333,11.2226573 L19.3075721,11.2226573 L19.3075721,9.55393919 C19.3075721,8.0816194 18.1241612,6.88372293 16.6719132,6.88372293 C15.2194016,6.88372293 14.0362543,8.0816194 14.0362543,9.55393919 L14.0362543,11.2226573 L12.4548589,11.2226573 L12.4548589,9.55393919 Z M25.6131225,6.56761507 C23.8538202,2.6001007 20.1246264,0.0707034146 15.9515876,0.0707034146 C10.6818512,0.0707034146 6.25789767,4.09566764 5.41501395,9.53737225 C2.19450233,10.3895007 5.27131783e-05,13.2598563 5.27131783e-05,16.6702405 C5.27131783e-05,20.783918 3.18656434,24.0486736 7.25470388,24.0486736 L25.3993705,24.0486736 C30.1854636,24.0486736 33.9346884,20.1851034 33.9346884,15.3074763 C33.9346884,10.5019956 30.2969519,6.67984271 25.6131225,6.56761507 L25.6131225,6.56761507 Z" id="Fill-3" fill="#231F20" mask="url(#mask-2)"></path>
                </g>
            </g>
        </g>
    </g>
</svg>