<?xml version="1.0" encoding="UTF-8"?>
<svg width="245px" height="37px" viewBox="0 0 245 37" version="1.1" xmlns="http://www.w3.org/2000/svg" xmlns:xlink="http://www.w3.org/1999/xlink">
    <!-- Generator: Sketch 57.1 (83088) - https://sketch.com -->
    <title>Group</title>
    <desc>Created with Sketch.</desc>
    <defs>
        <path d="M12.4444536,2.62787567 C12.4444536,4.09203096 13.4535449,5.18591158 14.7998783,5.18591158 C16.1130896,5.18591158 17.1496572,4.0775671 17.1496572,2.65639012 C17.1496572,1.24471796 16.1198646,0.135546976 14.7998783,0.135546976 C13.4990876,0.135546976 12.4444536,1.25091676 12.4444536,2.62787567 Z" id="path-1"></path>
        <filter x="-31.9%" y="-29.7%" width="163.8%" height="159.4%" filterUnits="objectBoundingBox" id="filter-2">
            <feGaussianBlur stdDeviation="1" in="SourceAlpha" result="shadowBlurInner1"></feGaussianBlur>
            <feOffset dx="1" dy="1" in="shadowBlurInner1" result="shadowOffsetInner1"></feOffset>
            <feComposite in="shadowOffsetInner1" in2="SourceAlpha" operator="arithmetic" k2="-1" k3="1" result="shadowInnerInner1"></feComposite>
            <feColorMatrix values="0 0 0 0 0   0 0 0 0 0   0 0 0 0 0  0 0 0 0.5 0" type="matrix" in="shadowInnerInner1"></feColorMatrix>
        </filter>
    </defs>
    <g id="Hi-Fi-Flows-V1" stroke="none" stroke-width="1" fill="none" fill-rule="evenodd">
        <g id="C1---Account-and-Pay" transform="translate(-24.000000, -1277.000000)">
            <g id="Group" transform="translate(24.000000, 1278.000000)">
                <g id="mastercard-copy" transform="translate(63.267327, 0.000000)">
                    <g id="card" fill="#14457C">
                        <rect x="0.0215913221" y="0.164483132" width="54.9318246" height="34.4336452" rx="4.45544554"></rect>
                    </g>
                    <g id="logo" transform="translate(13.366337, 8.910891)">
                        <path d="M16.9718125,8.43588446 C16.9718125,13.0950246 13.1793372,16.8715023 8.50089349,16.8715023 C3.82204814,16.8715023 0.0293051439,13.0950246 0.0293051439,8.43588446 C0.0293051439,3.77687768 3.82204814,-5.68434189e-14 8.50089349,-5.68434189e-14 C13.1793372,-5.68434189e-14 16.9718125,3.77687768 16.9718125,8.43588446" id="Fill-2" fill="#D82332"></path>
                        <path d="M19.957304,1.70530257e-13 C17.7680863,1.70530257e-13 15.7737871,0.82693771 14.2701307,2.18352616 C13.9643658,2.46001637 13.6786818,2.75863647 13.4153545,3.07658689 L15.1266472,3.07658689 C15.3603887,3.36000936 15.5759235,3.65796289 15.7724484,3.97004756 L12.7691517,3.97004756 C12.5896287,4.25680284 12.4261703,4.55475637 12.2811863,4.86350822 L16.2604138,4.86350822 C16.3964283,5.15266313 16.5161103,5.45048336 16.6191922,5.75656896 L11.9224079,5.75656896 C11.8245471,6.04759024 11.7422155,6.34554377 11.6762163,6.64949637 L16.8649822,6.64949637 C16.989082,7.22540656 17.0552151,7.82291339 17.0552151,8.43588446 C17.0552151,9.37240508 16.9020649,10.2738645 16.6191922,11.1157332 L11.9224079,11.1157332 C12.0253559,11.4216855 12.1451718,11.7197724 12.2809186,12.0093272 L16.2604138,12.0093272 C16.1150282,12.3172792 15.9523731,12.6154993 15.771779,12.9026546 L12.7691517,12.9026546 C12.9651412,13.213806 13.1810776,13.5121595 13.4153545,13.795182 L15.1261117,13.795182 C14.8631861,14.1133991 14.5773682,14.4120192 14.2705323,14.6885094 C15.7740548,16.0450978 17.7680863,16.8715023 19.957304,16.8715023 C24.6357478,16.8715023 28.4284908,13.0950246 28.4284908,8.43588446 C28.4284908,3.77727762 24.6357478,1.70530257e-13 19.957304,1.70530257e-13" id="Fill-3" fill="#F1AB3E"></path>
                        <path d="M27.2054312,13.2433308 C27.2054312,12.997453 27.4050979,12.7980042 27.6511937,12.7980042 C27.8977255,12.7980042 28.0965203,12.997453 28.0965203,13.2433308 C28.0965203,13.4894266 27.8977255,13.6890933 27.6511937,13.6890933 C27.4050979,13.6890933 27.2054312,13.4894266 27.2054312,13.2433308 L27.2054312,13.2433308 Z M27.6511937,13.5822847 C27.8375639,13.5822847 27.9897117,13.4303549 27.9897117,13.2433308 C27.9897117,13.0556528 27.8375639,12.9050308 27.6511937,12.9050308 C27.4639517,12.9050308 27.3122398,13.0556528 27.3122398,13.2433308 C27.3122398,13.4303549 27.4639517,13.5822847 27.6511937,13.5822847 L27.6511937,13.5822847 Z M27.5908142,13.438856 L27.4992639,13.438856 L27.4992639,13.0480236 L27.6651443,13.0480236 C27.6993666,13.0480236 27.7346788,13.0480236 27.7651956,13.0667696 C27.7963663,13.0890032 27.8146763,13.1262773 27.8146763,13.1650771 C27.8146763,13.2093264 27.789173,13.250742 27.7466676,13.2664363 L27.8190359,13.438856 L27.7176767,13.438856 L27.6575151,13.2843104 L27.5908142,13.2843104 L27.5908142,13.438856 L27.5908142,13.438856 Z M27.5908142,13.2169556 L27.6413848,13.2169556 C27.6601308,13.2169556 27.6801847,13.2182635 27.6971868,13.2093264 C27.7120093,13.1995175 27.7200744,13.1820793 27.7200744,13.1642052 C27.7200744,13.1493828 27.7100475,13.1319446 27.6976228,13.1243155 C27.6814925,13.1149425 27.6562072,13.1169043 27.639205,13.1169043 L27.5908142,13.1169043 L27.5908142,13.2169556 L27.5908142,13.2169556 Z" id="registered" fill="#F1AB3E"></path>
                        <path d="M27.2054312,10.5775159 C27.2054312,10.3305482 27.4057299,10.1317533 27.6507576,10.1317533 C27.8975308,10.1317533 28.0965203,10.3305482 28.0965203,10.5775159 C28.0965203,10.8227398 27.8975308,11.0228424 27.6507576,11.0228424 C27.4057299,11.0228424 27.2054312,10.8227398 27.2054312,10.5775159 L27.2054312,10.5775159 Z M27.6507576,10.9160338 C27.8386194,10.9160338 27.9904798,10.764104 27.9904798,10.5775159 C27.9904798,10.3907098 27.8386194,10.2387799 27.6507576,10.2387799 C27.4637685,10.2387799 27.3123444,10.3907098 27.3123444,10.5775159 C27.3123444,10.764104 27.4637685,10.9160338 27.6507576,10.9160338 L27.6507576,10.9160338 Z M27.5907552,10.7721691 L27.4995517,10.7721691 L27.4995517,10.3813368 L27.6651581,10.3813368 C27.6998504,10.3813368 27.7347608,10.3826446 27.7650893,10.4013906 C27.7973814,10.4225344 27.8148367,10.4600264 27.8148367,10.4988262 C27.8148367,10.5430755 27.7893084,10.5844911 27.7476341,10.6001854 L27.8196368,10.7721691 L27.7181784,10.7721691 L27.6579579,10.6176236 L27.5907552,10.6176236 L27.5907552,10.7721691 L27.5907552,10.7721691 Z M27.5907552,10.5507047 L27.6413754,10.5507047 C27.6597034,10.5507047 27.681086,10.5524485 27.6972321,10.5430755 C27.712069,10.5337025 27.7197057,10.5149565 27.7197057,10.4979543 C27.7197057,10.4831319 27.7109781,10.4665657 27.6981049,10.4574107 C27.6823952,10.4486916 27.6566487,10.4510893 27.6396299,10.4510893 L27.5907552,10.4510893 L27.5907552,10.5507047 L27.5907552,10.5507047 Z" id="registered" fill="#FFFFFE"></path>
                        <path d="M26.3388742,6.53231465 L26.1344509,7.76852187 C25.8834399,7.43910657 25.6132851,7.20047712 25.2566486,7.20047712 C24.7925125,7.20047712 24.3702785,7.55082248 24.0936978,8.06674203 C23.7084127,7.98715444 23.3105435,7.85184221 23.3105435,7.85184221 L23.3102757,7.85517502 C23.3407987,7.56681999 23.3539182,7.39138068 23.3508391,7.33139004 L22.5059695,7.33139004 C22.3912407,8.4086887 22.1864157,9.49945194 22.0267058,10.5771505 L21.9844021,10.8112474 L22.9047758,10.8112474 C23.0288756,10.0081726 23.1237913,9.34054339 23.1939405,8.81182584 C23.5084071,8.52880331 23.6658412,8.28244172 23.9829852,8.29843923 C23.8424191,8.63731972 23.7602213,9.02739222 23.7602213,9.42759648 C23.7602213,10.2971942 24.2018669,10.8713713 24.8706941,10.8713713 C25.2077851,10.8713713 25.466293,10.7555227 25.7186428,10.4872979 L25.6752681,10.8109807 L26.5454396,10.8109807 L27.2458607,6.53231465 L26.3388742,6.53231465 L26.3388742,6.53231465 Z M25.1886414,10.0073727 C24.8756474,10.0073727 24.7172761,9.77620878 24.7172761,9.32134638 C24.7172761,8.63731972 25.0135361,8.15246199 25.430549,8.15246199 C25.7466221,8.15246199 25.9178451,8.39189132 25.9178451,8.83395572 C25.9178451,9.52384813 25.6166319,10.0073727 25.1886414,10.0073727 L25.1886414,10.0073727 Z" id="Fill-12" fill="#0C2D5A"></path>
                        <path d="M21.0519798,9.33974351 C20.9559932,9.32854526 20.9134217,9.32547907 20.8472887,9.32547907 C20.3261229,9.32547907 20.0622601,9.503318 20.0622601,9.85486318 C20.0622601,10.0712294 20.1910455,10.2097412 20.3918543,10.2097412 C20.7661619,10.2097412 21.0365845,9.85459655 21.0519798,9.33974351 L21.0519798,9.33974351 Z M21.7213425,10.8897685 L20.9594739,10.8897685 L20.9767434,10.5294247 C20.7442068,10.8140469 20.434158,10.950159 20.0131289,10.950159 C19.5143198,10.950159 19.1730787,10.5622195 19.1730787,9.99937398 C19.1730787,9.15177282 19.7669373,8.65824979 20.7874477,8.65824979 C20.8917344,8.65824979 21.0250714,8.66771498 21.1617553,8.68531223 C21.1902701,8.57013019 21.1979009,8.52120449 21.1979009,8.45881422 C21.1979009,8.22871677 21.0381909,8.1429968 20.6083262,8.1429968 C20.1585145,8.1376643 19.7878214,8.2492469 19.6348051,8.29897248 C19.6445778,8.24138146 19.7623856,7.51656116 19.7623856,7.51656116 C20.2207652,7.38271537 20.5227816,7.33218991 20.8629518,7.33218991 C21.6526659,7.33218991 22.0711515,7.68560147 22.0702144,8.35269744 C22.0719547,8.53146956 22.042235,8.75263507 21.9959151,9.04218991 C21.9161271,9.54571139 21.7449041,10.6271427 21.7213425,10.8897685 L21.7213425,10.8897685 Z" id="a" fill="#0C2D5A"></path>
                        <path d="M18.6260755,7.45883683 C18.8815043,7.45883683 19.1199313,7.52495985 19.447919,7.68973415 L19.5985256,6.76121229 C19.4633143,6.70842052 18.9892717,6.3990021 18.587654,6.3990021 C17.9723758,6.3990021 17.4514778,6.70348796 17.0860057,7.20487643 C16.552122,7.02890387 16.3324372,7.38458174 16.0636211,7.73919311 L15.8246587,7.79465113 C15.8427314,7.67800265 15.8591978,7.56202074 15.8539767,7.4447057 L15.0088394,7.4447057 C14.8938429,8.52200437 14.6894195,9.6127676 14.5293079,10.6904662 L14.4875397,10.924563 L15.4076457,10.924563 C15.5610636,9.93085133 15.6450017,9.29481718 15.6962749,8.86395104 L16.042737,8.67278085 C16.0948134,8.48067748 16.2563976,8.41615421 16.5813063,8.42401965 C16.5390025,8.6509176 16.5159765,8.88994699 16.5159765,9.13724176 C16.5159765,10.2758642 17.1335305,10.984687 18.1232502,10.984687 C18.3781435,10.984687 18.5972929,10.9513589 18.936392,10.8593732 L19.0974407,9.88432525 C18.7926129,10.033502 18.5429406,10.1037577 18.3164283,10.1037577 C17.7817413,10.1037577 17.4583053,9.71061901 17.4583053,9.06125361 C17.4583053,8.11886723 17.9391755,7.45883683 18.6260755,7.45883683" id="Fill-11" fill="#0C2D5A"></path>
                        <path d="M14.1711989,10.809381 C13.8571339,10.9050994 13.5536448,10.9504257 13.2330201,10.950159 C12.2094306,10.9494925 11.6762163,10.4169089 11.6762163,9.39786778 C11.6762163,8.20805333 12.3546824,7.33218991 13.2755916,7.33218991 C14.0299634,7.33218991 14.5111013,7.82251345 14.5111013,8.59212676 C14.5111013,8.84715366 14.4776331,9.09604818 14.3986483,9.44759336 L12.5781156,9.44759336 C12.5162665,9.95244796 12.8409074,10.1630818 13.3725153,10.1630818 C13.6995659,10.1630818 13.9948887,10.0956256 14.323412,9.94364933 L14.1711989,10.809381 L14.1711989,10.809381 Z M13.6573961,8.74583613 C13.6623493,8.67304748 13.7541859,8.12473299 13.2318153,8.12473299 C12.9407763,8.12473299 12.7326045,8.34616512 12.6477294,8.74583613 L13.6573961,8.74583613 L13.6573961,8.74583613 Z" id="e" fill="#0C2D5A"></path>
                        <path d="M11.3237183,10.8856358 C11.0721717,10.9645568 10.8759146,10.9988181 10.6631911,10.9988181 C10.1930308,10.9988181 9.93626322,10.7296601 9.93626322,10.2346706 C9.92983734,10.0802947 10.0041366,9.676491 10.062505,9.30694862 C10.1155186,8.9815327 10.4613113,6.93225228 10.4613113,6.93225228 L11.3753931,6.93225228 L11.2685628,7.45883683 L11.737786,7.45883683 L11.6128829,8.2949731 L11.1420532,8.2949731 C11.0358923,8.95726982 10.8843486,9.78114134 10.8826082,9.89045763 C10.8826082,10.0704296 10.9789965,10.1482841 11.1977442,10.1482841 C11.3024325,10.1482841 11.3835593,10.138019 11.4456761,10.1154892 L11.3237183,10.8856358" id="t" fill="#0C2D5A"></path>
                        <path d="M7.74036357,8.51013955 C7.74036357,8.95073751 7.95482739,9.25362361 8.44091859,9.48198799 C8.81321813,9.6563608 8.87078332,9.70795276 8.87078332,9.86606143 C8.87078332,10.0829609 8.70665558,10.1808123 8.34265614,10.1808123 C8.06821743,10.1808123 7.81305636,10.138419 7.51853677,10.0439004 C7.51853677,10.0439004 7.39805148,10.8105808 7.39229496,10.8468418 C7.60127,10.8924347 7.78775445,10.9340282 8.3492159,10.950159 C9.31979183,10.950159 9.7679971,10.5823497 9.7679971,9.78714041 C9.7679971,9.308815 9.58030779,9.02832541 9.11965238,8.81769159 C8.73409945,8.64105247 8.68978764,8.60199189 8.68978764,8.43935059 C8.68978764,8.25124659 8.84253621,8.15446168 9.13986713,8.15446168 C9.32019344,8.15446168 9.56692054,8.17445856 9.800662,8.20725345 L9.93158934,7.40031262 C9.69343009,7.3628518 9.33250972,7.33218991 9.12206208,7.33218991 C8.09325159,7.33218991 7.73728451,7.86730646 7.74036357,8.51013955" id="s" fill="#0C2D5A"></path>
                        <path d="M6.59441461,9.33974351 C6.49802638,9.32854526 6.45545491,9.32547907 6.38918801,9.32547907 C5.86788833,9.32547907 5.60402555,9.503318 5.60402555,9.85486318 C5.60402555,10.0712294 5.73281093,10.2097412 5.93375362,10.2097412 C6.30846286,10.2097412 6.57848378,9.85459655 6.59441461,9.33974351 L6.59441461,9.33974351 Z M7.26324183,10.8897685 L6.5013732,10.8897685 L6.51877663,10.5294247 C6.28637389,10.8140469 5.97619121,10.950159 5.55489432,10.950159 C5.05648685,10.950159 4.71484412,10.5622195 4.71484412,9.99937398 C4.71484412,9.15177282 5.30910434,8.65824979 6.32934698,8.65824979 C6.43376756,8.65824979 6.56737236,8.66771498 6.7041901,8.68531223 C6.73270495,8.57013019 6.74020181,8.52120449 6.74020181,8.45881422 C6.74020181,8.22871677 6.57995638,8.1429968 6.15049326,8.1429968 C5.7002799,8.1376643 5.32945296,8.2492469 5.17683826,8.29897248 C5.18647709,8.24138146 5.3044188,7.51656116 5.3044188,7.51656116 C5.76266451,7.38271537 6.06494871,7.33218991 6.40511884,7.33218991 C7.19483296,7.33218991 7.61305079,7.68560147 7.61224755,8.35269744 C7.61385402,8.53146956 7.58413432,8.75263507 7.53794829,9.04218991 C7.45802638,9.54571139 7.28666953,10.6271427 7.26324183,10.8897685 L7.26324183,10.8897685 Z" id="a" fill="#0C2D5A"></path>
                        <polyline id="m" fill="#0C2D5A" points="4.25258223 10.94416 3.33301174 10.94416 3.85993407 7.65507289 2.68359604 10.94416 2.0568048 10.94416 1.97929259 7.67413659 1.42559576 10.94416 0.564795313 10.94416 1.28382474 6.66562719 2.60635158 6.66562719 2.64316653 9.31428081 3.5355609 6.66562719 4.96384705 6.66562719 4.25258223 10.94416"></polyline>
                        <path d="M26.9114471,10.6775349 L26.0416772,10.6775349 L26.0847842,10.3537187 C25.8324344,10.6220769 25.5737927,10.7379255 25.2368355,10.7379255 C24.5684099,10.7379255 24.1263627,10.1644149 24.1263627,9.29388399 C24.1263627,8.13646449 24.811924,7.16088329 25.6226561,7.16088329 C25.9794265,7.16088329 26.2494474,7.30592734 26.5009939,7.63547595 L26.7050156,6.3990021 L27.6120021,6.3990021 L26.9114471,10.6775349 L26.9114471,10.6775349 Z M25.5547828,9.87352694 C25.9833088,9.87352694 26.2839865,9.39026896 26.2839865,8.70104311 C26.2839865,8.2588454 26.1127635,8.01874951 25.7965566,8.01874951 C25.3795436,8.01874951 25.0832837,8.50360723 25.0832837,9.18790052 C25.0832837,9.64342948 25.2420565,9.87352694 25.5547828,9.87352694 L25.5547828,9.87352694 Z" id="d-2" fill="#FFFFFE"></path>
                        <path d="M22.7735807,7.10292257 C22.6584503,8.17995461 22.4540269,9.27085116 22.2940493,10.3484164 L22.2521471,10.5825133 L23.1719854,10.5825133 C23.5009102,8.45457845 23.5801628,8.03930988 24.0963753,8.09116845 C24.1784392,7.65563637 24.3313216,7.27422919 24.445381,7.0819925 C24.0602297,7.00200497 23.8450965,7.21877117 23.563161,7.63070693 C23.5856515,7.45246806 23.6262149,7.27956169 23.6185842,7.10292257 L22.7735807,7.10292257" id="r-2" fill="#FFFFFE"></path>
                        <path d="M21.3197249,9.07311842 C21.2237383,9.06192017 21.1811668,9.05885398 21.1150338,9.05885398 C20.593868,9.05885398 20.3300052,9.23669291 20.3300052,9.58823809 C20.3300052,9.80460435 20.4587906,9.94311608 20.6595994,9.94311608 C21.033907,9.94311608 21.3043295,9.58797147 21.3197249,9.07311842 L21.3197249,9.07311842 Z M21.9890876,10.6231434 L21.227219,10.6231434 L21.2444885,10.2627996 C21.0119519,10.5474218 20.7019031,10.683534 20.280874,10.683534 C19.7820649,10.683534 19.4408238,10.2955944 19.4408238,9.73274889 C19.4408238,8.88514774 20.0346824,8.3916247 21.0551927,8.3916247 C21.1594795,8.3916247 21.2928165,8.40108989 21.4295004,8.41868714 C21.4580152,8.30350511 21.465646,8.2545794 21.465646,8.19218913 C21.465646,7.96209168 21.305936,7.87637172 20.8760713,7.87637172 C20.4262595,7.87103921 20.0555665,7.98262181 19.9025502,8.03234739 C19.9123229,7.97475637 20.0301307,7.24993607 20.0301307,7.24993607 C20.4885103,7.11609028 20.7905267,7.06556482 21.1306969,7.06556482 C21.920411,7.06556482 22.3388966,7.41897638 22.3379594,8.08607235 C22.3396998,8.26484447 22.3099801,8.48600998 22.2636602,8.77556482 C22.1838721,9.2790863 22.0126492,10.3605177 21.9890876,10.6231434 L21.9890876,10.6231434 Z" id="a-2" fill="#FFFFFE"></path>
                        <path d="M19.8455205,6.48792157 L19.6949138,7.41644344 C19.3665245,7.25206907 19.128633,7.18554611 18.8733381,7.18554611 C18.1867058,7.18554611 17.7051663,7.84637639 17.7051663,8.78889608 C17.7051663,9.43826148 18.0288701,9.8306003 18.563557,9.8306003 C18.7899355,9.8306003 19.0401432,9.76087784 19.3445694,9.61116785 L19.1829852,10.5862158 C18.8444216,10.6782015 18.6252722,10.7116629 18.3703789,10.7116629 C17.3801237,10.7116629 16.7633729,10.0027068 16.7633729,8.86435098 C16.7633729,7.33472285 17.6160071,6.26568956 18.8346489,6.26568956 C19.2362665,6.26568956 19.7105769,6.4351298 19.8455205,6.48792157" id="c-2" fill="#FFFFFE"></path>
                        <path d="M15.2772538,7.10292257 C15.1615879,8.17995461 14.9568968,9.27085116 14.7971869,10.3484164 L14.7552848,10.5825133 L15.6753908,10.5825133 C16.0045833,8.45457845 16.0835681,8.03930988 16.5989774,8.09116845 C16.6815768,7.65563637 16.8348609,7.27422919 16.9485186,7.0819925 C16.5636351,7.00200497 16.3482342,7.21877117 16.0668341,7.63070693 C16.0890569,7.45246806 16.129888,7.27956169 16.1217218,7.10292257 L15.2772538,7.10292257" id="r-3" fill="#FFFFFE"></path>
                        <path d="M14.438944,10.5427559 C14.124879,10.6384743 13.8213899,10.6838006 13.5007652,10.683534 C12.4771757,10.6828674 11.9439614,10.1502838 11.9439614,9.13124269 C11.9439614,7.94142824 12.6224274,7.06556482 13.5433367,7.06556482 C14.2977084,7.06556482 14.7788464,7.55588836 14.7788464,8.32550168 C14.7788464,8.58052857 14.7453782,8.82942309 14.6663934,9.18096827 L12.8458607,9.18096827 C12.7840116,9.68582287 13.1086525,9.89645669 13.6402604,9.89645669 C13.967311,9.89645669 14.2626338,9.82900055 14.591157,9.67702425 L14.438944,10.5427559 L14.438944,10.5427559 Z M13.9251412,8.47921104 C13.9300944,8.40642239 14.021931,7.8581079 13.4995603,7.8581079 C13.2085214,7.8581079 13.0003496,8.07954003 12.9154744,8.47921104 L13.9251412,8.47921104 L13.9251412,8.47921104 Z" id="e-2" fill="#FFFFFE"></path>
                        <path d="M11.5914633,10.6190107 C11.3399168,10.6979317 11.1436597,10.732193 10.9309362,10.732193 C10.4607758,10.732193 10.2040083,10.463035 10.2040083,9.96804553 C10.1975824,9.8136696 10.2718817,9.40986591 10.3302501,9.04032354 C10.3832636,8.71490762 10.7290564,6.66562719 10.7290564,6.66562719 L11.6431381,6.66562719 L11.5363078,7.19221174 L12.0055311,7.19221174 L11.880628,8.02834802 L11.4097983,8.02834802 C11.3036374,8.69064473 11.1520937,9.51451625 11.1503533,9.62383254 C11.1503533,9.80380447 11.2467415,9.881659 11.4654893,9.881659 C11.5701776,9.881659 11.6513044,9.87139393 11.7134212,9.84886411 L11.5914633,10.6190107" id="t-2" fill="#FFFFFE"></path>
                        <path d="M8.00810866,8.24351446 C8.00810866,8.68411242 8.22257247,8.98699852 8.70866367,9.21536291 C9.08096321,9.38973571 9.1385284,9.44132767 9.1385284,9.59943635 C9.1385284,9.81633585 8.97440067,9.91418726 8.61040123,9.91418726 C8.33596251,9.91418726 8.08080145,9.87179387 7.78628186,9.77727528 C7.78628186,9.77727528 7.66579657,10.5439557 7.66004005,10.5802167 C7.86901509,10.6258096 8.05549954,10.6674031 8.61696098,10.683534 C9.58753691,10.683534 10.0357422,10.3157246 10.0357422,9.52051532 C10.0357422,9.04218991 9.84805288,8.76170032 9.38739746,8.5510665 C9.00184454,8.37442738 8.95753273,8.3353668 8.95753273,8.1727255 C8.95753273,7.9846215 9.1102813,7.88783659 9.40761221,7.88783659 C9.58793853,7.88783659 9.83466562,7.90783348 10.0684071,7.94062836 L10.1993344,7.13368753 C9.96117518,7.09622671 9.6002548,7.06556482 9.38980717,7.06556482 C8.36099668,7.06556482 8.00502959,7.60068138 8.00810866,8.24351446" id="s-2" fill="#FFFFFE"></path>
                        <path d="M6.8621597,9.07311842 C6.76577147,9.06192017 6.7232,9.05885398 6.65693309,9.05885398 C6.13563341,9.05885398 5.87177063,9.23669291 5.87177063,9.58823809 C5.87177063,9.80460435 6.00055602,9.94311608 6.2014987,9.94311608 C6.57620795,9.94311608 6.84622886,9.58797147 6.8621597,9.07311842 L6.8621597,9.07311842 Z M7.53098692,10.6231434 L6.76911828,10.6231434 L6.78652171,10.2627996 C6.55411898,10.5474218 6.2439363,10.683534 5.82263941,10.683534 C5.32423193,10.683534 4.9825892,10.2955944 4.9825892,9.73274889 C4.9825892,8.88514774 5.57684942,8.3916247 6.59709206,8.3916247 C6.70151265,8.3916247 6.83511744,8.40108989 6.97193518,8.41868714 C7.00045003,8.30350511 7.0079469,8.2545794 7.0079469,8.19218913 C7.0079469,7.96209168 6.84770146,7.87637172 6.41823835,7.87637172 C5.96802499,7.87103921 5.59719805,7.98262181 5.44458335,8.03234739 C5.45422217,7.97475637 5.57216388,7.24993607 5.57216388,7.24993607 C6.03040959,7.11609028 6.33269379,7.06556482 6.67286392,7.06556482 C7.46257805,7.06556482 7.88079587,7.41897638 7.87999264,8.08607235 C7.88159911,8.26484447 7.8518794,8.48600998 7.80569337,8.77556482 C7.72577147,9.2790863 7.55441461,10.3605177 7.53098692,10.6231434 L7.53098692,10.6231434 Z" id="a-3" fill="#FFFFFE"></path>
                        <polyline id="m-2" fill="#FFFFFE" points="4.52032732 10.6775349 3.60075682 10.6775349 4.12767915 7.38844781 2.95134112 10.6775349 2.32454988 10.6775349 2.24703768 7.4075115 1.69334084 10.6775349 0.832540397 10.6775349 1.55156982 6.3990021 2.87409667 6.3990021 2.91091161 9.04765573 3.80330598 6.3990021 5.23159213 6.3990021 4.52032732 10.6775349"></polyline>
                    </g>
                </g>
                <g id="visa-copy">
                    <g id="card" fill="#0066B2">
                        <rect x="0.0215913221" y="0.164483132" width="54.9318246" height="34.4336452" rx="4.45544554"></rect>
                    </g>
                    <g id="logo" transform="translate(13.366337, 12.475248)">
                        <g id="registered" transform="translate(26.355395, 7.722867)" fill="#FFFFFF">
                            <path d="M0.0692770371,0.513551846 C0.0692770371,0.258358169 0.268823423,0.0515360127 0.514821592,0.0515360127 C0.761255927,0.0515360127 0.960366146,0.258358169 0.960366146,0.513551846 C0.960366146,0.768519488 0.761255927,0.97556768 0.514821592,0.97556768 C0.268823423,0.97556768 0.0692770371,0.768519488 0.0692770371,0.513551846 L0.0692770371,0.513551846 Z M0.514821592,0.864358389 C0.702373386,0.864358389 0.853723323,0.707263964 0.853723323,0.513551846 C0.853723323,0.319161623 0.702373386,0.162519268 0.514821592,0.162519268 C0.328142131,0.162519268 0.17657411,0.319161623 0.17657411,0.513551846 C0.17657411,0.707263964 0.328142131,0.864358389 0.514821592,0.864358389 L0.514821592,0.864358389 Z M0.454848634,0.716079335 L0.363689738,0.716079335 L0.363689738,0.310346252 L0.528997018,0.310346252 C0.563454208,0.310346252 0.598347565,0.310798322 0.628879253,0.330689415 C0.660501358,0.353745 0.678384203,0.391944939 0.678384203,0.432179195 C0.678384203,0.478516399 0.652868436,0.521463076 0.610996407,0.537285536 L0.682527789,0.716079335 L0.58111897,0.716079335 L0.521800263,0.555368348 L0.454848634,0.555368348 L0.454848634,0.716079335 L0.454848634,0.716079335 Z M0.454848634,0.485975559 L0.505007835,0.485975559 C0.523981098,0.485975559 0.544262862,0.48778384 0.560837206,0.478516399 C0.575884967,0.468344818 0.583735972,0.449357866 0.583735972,0.431275054 C0.583735972,0.416356735 0.574576466,0.398273923 0.56170954,0.390362693 C0.545571363,0.380643182 0.520273679,0.382677498 0.503263167,0.382677498 L0.454848634,0.382677498 L0.454848634,0.485975559 L0.454848634,0.485975559 Z"></path>
                        </g>
                        <path d="M24.5049684,0.202489816 L26.2059317,8.7273473 L24.254939,8.7273473 L24.0059498,7.46133315 L21.3045219,7.46133315 L20.8616819,8.7273473 L18.6471352,8.7273473 L21.8156778,0.837489186 C21.8156778,0.837489186 22.0081416,0.202489816 22.7970695,0.202489816 L22.7970695,0.202489816 L24.5049684,0.202489816 Z M23.0332277,2.52116122 L21.916938,5.71209644 L23.6615958,5.71209644 L23.0332277,2.52116122 Z" id="a" fill="#FFFFFF"></path>
                        <path d="M18.8128968,2.25238225 L19.1163306,0.421642479 C19.1163306,0.421642479 18.1803673,0.0499885414 17.2052177,0.0499885414 C16.1506551,0.0499885414 13.6465459,0.531399929 13.6465459,2.87216771 C13.6465459,5.07492366 16.5858659,5.10245358 16.5858659,6.25834804 C16.5858659,7.41496697 13.9496329,7.20849256 13.0792113,6.47894965 L12.7636402,8.39264141 C12.7636402,8.39264141 13.7120876,8.87441504 15.1623278,8.87441504 C16.6118745,8.87441504 18.8000658,8.08981228 18.8000658,5.95588114 C18.8000658,3.73936024 15.8343904,3.53252359 15.8343904,2.56897634 C15.8343904,1.60506686 17.9039824,1.72895151 18.8128968,2.25238225" id="s" fill="#FFFFFF"></path>
                        <polyline id="i" fill="#FFFFFF" points="11.4541932 8.7273473 9.32946289 8.7273473 10.6572893 0.202489816 12.7827131 0.202489816 11.4541932 8.7273473"></polyline>
                        <path d="M9.82882826,0.202489816 L6.44805534,8.7273473 L4.2342022,8.7273473 L2.38836831,1.32070642 C2.69216367,1.51144421 3.00712588,1.7362866 3.31939259,2.00026613 C4.73886266,3.20052054 5.23783559,4.6844415 5.27411832,4.79681374 L5.27628063,4.8032468 L5.51625344,6.06600083 L7.54180422,0.202489816 L9.82882826,0.202489816 Z M2.21022442,1.21220728 L2.29876847,1.26522955 C2.31860112,1.27733847 2.33848804,1.28959286 2.35842525,1.30199414 C2.30875954,1.27135043 2.25930384,1.24133347 2.21022442,1.21220728 Z M1.81560669,0.991493069 L1.82949159,0.999209343 C1.81035989,0.989136654 1.79131869,0.979203874 1.77237222,0.969409477 L1.82951031,0.998799507 C1.82487044,0.996355789 1.82023588,0.993920317 1.81560669,0.991493069 Z M0.28167536,0.375806609 L0.320545635,0.386373009 C0.346895457,0.393702451 0.37635046,0.402133978 0.408714884,0.411738656 C0.359884024,0.397350095 0.317007097,0.385324312 0.28167536,0.375806609 Z M0.195380863,0.353639227 L0.222840179,0.36040028 C0.233008911,0.362961115 0.24447112,0.365900056 0.257180906,0.369233768 C0.230686212,0.362329564 0.210322263,0.357253355 0.195380863,0.353639227 Z M2.03507618,1.11105401 L2.13451181,1.16746985 L2.13451181,1.16746985 L2.21022442,1.21220728 C2.15126324,1.17721675 2.09284512,1.14351179 2.03507618,1.11105401 Z M1.97328766,1.07628615 L2.03507618,1.11105401 C1.99284742,1.08732757 1.95096555,1.06426756 1.90947201,1.04185898 C1.93070388,1.05292763 1.95194822,1.06452114 1.97328766,1.07628615 Z M1.69710153,0.930966309 C1.58760597,0.875721002 1.48155602,0.82515723 1.37980062,0.778967818 L1.51291705,0.840337144 C1.56178706,0.863543792 1.61150295,0.887722843 1.66197959,0.912905198 Z M0.953754566,0.599605671 C0.779831156,0.532090713 0.628179442,0.480230137 0.505590792,0.441566536 L0.461022185,0.427525963 C0.601620422,0.470657977 0.786748277,0.532970629 1.0040472,0.618950516 Z" id="v" fill="#FFFFFF"></path>
                        <path d="M5.27628063,4.80360904 L4.56121716,0.970067491 C4.56121716,0.970067491 4.47521535,0.202489816 3.5534701,0.202489816 L0.204601089,0.202489816 L0.165414779,0.346659667 C0.16576156,0.346659667 1.77552132,0.695130514 3.31939259,2.00026613 C4.79564146,3.24853072 5.27628063,4.80360904 5.27628063,4.80360904" id="shape" fill="#F9A533"></path>
                    </g>
                </g>
                <g id="discover-copy" transform="translate(188.910891, 0.000000)">
                    <g id="card" fill="#F9F9F9" stroke="#D1D1D1" stroke-width="0.891089109">
                        <rect x="0.0215913221" y="0.164483132" width="54.9318246" height="34.4336452" rx="4.45544554"></rect>
                    </g>
                    <path d="M55.2475248,20.4950495 L55.2475248,30.2879106 C55.2475248,32.7536216 53.2611367,34.7524752 50.786275,34.7524752 C50.786275,34.7524752 22.7262805,34.7524752 15.1485149,34.7524752 C32.1984876,31.3430908 44.5123567,26.6939303 55.2475248,20.4950495 Z" id="shape" fill="#F58220"></path>
                    <g id="logo" transform="translate(13.366337, 13.366337)">
                        <g id="registered" transform="translate(27.476191, 0.223845)" fill="#231F20">
                            <path d="M0.976603752,0.506352424 C0.976603752,0.330026877 0.854524544,0.23197267 0.629078999,0.23197267 L0.332346326,0.23197267 L0.332346326,1.12306178 L0.550663158,1.12306178 L0.550663158,0.776431556 L0.80818791,1.12306178 L1.08264336,1.12306178 L0.774326524,0.75492844 C0.904425534,0.72138358 0.976603752,0.63021037 0.976603752,0.506352424 L0.976603752,0.506352424 Z M0.591653257,0.626769872 L0.550663158,0.626769872 L0.550663158,0.397116597 L0.594326524,0.397116597 C0.702148306,0.397116597 0.757395831,0.434101956 0.757395831,0.509792923 C0.757395831,0.587204139 0.699475039,0.626769872 0.591653257,0.626769872 L0.591653257,0.626769872 Z" id="r"></path>
                            <path d="M0.584782874,0.0716305157 C0.335794785,0.0716305157 0.1370019,0.269869487 0.1370019,0.517421636 C0.1370019,0.763987521 0.336788749,0.962719625 0.584782874,0.962719625 C0.828801141,0.962719625 1.02809101,0.762014994 1.02809101,0.517421636 C1.02809101,0.272828278 0.828801141,0.0716305157 0.584782874,0.0716305157 L0.584782874,0.0716305157 Z M0.584285892,0.882339146 C0.385493006,0.882339146 0.224967751,0.720591925 0.224967751,0.5184079 C0.224967751,0.314251347 0.384499042,0.152504126 0.584285892,0.152504126 C0.778605937,0.152504126 0.937640246,0.317210137 0.937640246,0.5184079 C0.937640246,0.718619398 0.778605937,0.882339146 0.584285892,0.882339146 L0.584285892,0.882339146 Z" id="Fill-12"></path>
                        </g>
                        <path d="M27.4728009,1.65797094 C27.4728009,0.748814391 26.903705,0.226049377 25.9096691,0.226049377 L24.6307089,0.226049377 L24.6307089,5.0768128 L25.4926332,5.0768128 L25.4926332,3.12749851 L25.6055491,3.12749851 L26.7971877,5.0768128 L27.8574676,5.0768128 L26.4652151,3.03327684 C27.1156104,2.88781179 27.4728009,2.40058653 27.4728009,1.65797094 L27.4728009,1.65797094 Z M25.7433064,2.45844195 L25.4926332,2.45844195 L25.4926332,0.988914369 L25.7576091,0.988914369 C26.2947121,0.988914369 26.5867878,1.23727941 26.5867878,1.70880105 C26.5867878,2.19602631 26.2947121,2.45844195 25.7433064,2.45844195 L25.7433064,2.45844195 Z" id="r" fill="#231F20"></path>
                        <polyline id="e" fill="#231F20" points="21.6177375 5.0768128 24.0619893 5.0768128 24.0619893 4.25526588 22.4789091 4.25526588 22.4789091 2.94525395 24.0017675 2.94525395 24.0017675 2.12453354 22.4789091 2.12453354 22.4789091 1.04759629 24.0619893 1.04759629 24.0619893 0.226049377 21.6177375 0.226049377 21.6177375 5.0768128"></polyline>
                        <polyline id="v" fill="#231F20" points="19.0993376 3.48454908 17.9197433 0.226049377 16.9791542 0.226049377 18.8546866 5.20120194 19.3180179 5.20120194 21.2262959 0.226049377 20.2924818 0.226049377 19.0993376 3.48454908"></polyline>
                        <g id="Fill-1">
                            <use fill="#F48027" fill-rule="evenodd" xlink:href="#path-1"></use>
                            <use fill="black" fill-opacity="1" filter="url(#filter-2)" xlink:href="#path-1"></use>
                        </g>
                        <path d="M8.70505687,2.6539106 C8.70505687,4.08087313 9.72581618,5.18591158 11.0371456,5.18591158 C11.4086388,5.18591158 11.7263087,5.10615376 12.1177503,4.90242004 L12.1177503,3.78952978 C11.7722278,4.16806951 11.4677314,4.31973335 11.0766662,4.31973335 C10.209096,4.31973335 9.59257548,3.62877437 9.59257548,2.64647205 C9.59257548,1.71665286 10.2282917,0.981475815 11.0371456,0.981475815 C11.4474066,0.981475815 11.7590543,1.14223122 12.1177503,1.52696974 L12.1177503,0.414079481 C11.740235,0.203320464 11.4278345,0.116950592 11.0574705,0.116950592 C9.75178683,0.116950592 8.70505687,1.24471796 8.70505687,2.6539106" id="c" fill="#231F20"></path>
                        <path d="M7.16224992,2.08651427 C6.64471893,1.87658176 6.4930353,1.73772876 6.4930353,1.47613963 C6.4930353,1.17115893 6.76328057,0.938497506 7.1355265,0.938497506 C7.39372742,0.938497506 7.60563284,1.05503484 7.83146455,1.33026133 L8.28124603,0.684346926 C7.91012926,0.326883103 7.46674634,0.145465047 6.98271371,0.145465047 C6.20171239,0.145465047 5.6051403,0.74178909 5.6051403,1.5344083 C5.6051403,2.20429137 5.88328969,2.54563833 6.69139081,2.86549613 C7.0293856,2.99608407 7.20139408,3.08328045 7.28758652,3.14196237 C7.45997139,3.26635151 7.54654021,3.43991776 7.54654021,3.64323823 C7.54654021,4.03706831 7.26123949,4.3271719 6.87657281,4.3271719 C6.4655591,4.3271719 6.13471565,4.10277554 5.93598375,3.68043099 L5.38043775,4.27055624 C5.77714878,4.9098586 6.25403007,5.19376339 6.91044757,5.19376339 C7.80474113,5.19376339 8.43368243,4.53834417 8.43368243,3.60067317 C8.43368243,2.82995637 8.1431123,2.48034436 7.16224992,2.08651427" id="s" fill="#231F20"></path>
                        <polygon id="i" fill="#231F20" points="4.19406852 0.226049377 5.05524009 0.226049377 5.05524009 5.0768128 4.19406852 5.0768128"></polygon>
                        <path d="M1.4249954,0.226049377 L0.158832298,0.226049377 L0.158832298,5.0768128 L1.41897322,5.0768128 C2.08705869,5.0768128 2.57071493,4.90242004 2.99490215,4.51768152 C3.49775409,4.05814421 3.79622833,3.36718524 3.79622833,2.6539106 C3.79622833,1.22198905 2.82176451,0.226049377 1.4249954,0.226049377 L1.4249954,0.226049377 Z M2.4325812,3.8692876 C2.16007761,4.1391418 1.80966208,4.25526588 1.25261053,4.25526588 L1.02075665,4.25526588 L1.02075665,1.04759629 L1.25261053,1.04759629 C1.80966208,1.04759629 2.14652771,1.15669508 2.4325812,1.43977336 C2.73067906,1.73111671 2.90795695,2.18156245 2.90795695,2.64647205 C2.90795695,3.11303466 2.73067906,3.57959727 2.4325812,3.8692876 L2.4325812,3.8692876 Z" id="d" fill="#231F20"></path>
                    </g>
                </g>
                <g id="american-express-copy" transform="translate(126.534653, 0.000000)">
                    <g id="card" fill="#2E77BC">
                        <rect x="0.0215913221" y="0.164483132" width="54.9318246" height="34.4336452" rx="4.45544554"></rect>
                    </g>
                    <g id="logo" transform="translate(8.019802, 10.693069)" fill="#FFFFFF">
                        <path d="M3.70733232,3.60106467 L2.98254306,1.80265805 L2.26162968,3.60106467 L3.70733232,3.60106467 Z M19.6774214,2.88488625 C19.5318755,2.9748338 19.359733,2.97782751 19.1535096,2.97782751 L17.8668516,2.97782751 L17.8668516,1.97574925 L19.1710178,1.97574925 C19.3554562,1.97574925 19.5481809,1.98432216 19.6732782,2.05712388 C19.8106714,2.12298562 19.8956734,2.26273771 19.8956734,2.45596845 C19.8956734,2.65314544 19.814681,2.81194845 19.6774214,2.88488625 L19.6774214,2.88488625 Z M28.8561696,3.60106467 L28.1232277,1.80265805 L27.3944289,3.60106467 L28.8561696,3.60106467 L28.8561696,3.60106467 Z M11.746305,5.5477963 L10.6605245,5.5477963 L10.6565149,2.01439539 L9.1205979,5.5477963 L8.19065439,5.5477963 L6.65099512,2.0112656 L6.65099512,5.5477963 L4.49680865,5.5477963 L4.08984142,4.54149961 L1.88460027,4.54149961 L1.47348986,5.5477963 L0.32302224,5.5477963 L2.21979693,1.03626685 L3.7932699,1.03626685 L5.59475144,5.30775473 L5.59475144,1.03626685 L7.32325954,1.03626685 L8.70935384,4.09679676 L9.98278036,1.03626685 L11.7461714,1.03626685 L11.7461714,5.5477963 L11.746305,5.5477963 L11.746305,5.5477963 Z M16.0737901,5.5477963 L12.5355141,5.5477963 L12.5355141,1.03626685 L16.0737901,1.03626685 L16.0737901,1.97574925 L13.5948317,1.97574925 L13.5948317,2.78895127 L16.0143154,2.78895127 L16.0143154,3.71373724 L13.5948317,3.71373724 L13.5948317,4.61470957 L16.0737901,4.61470957 L16.0737901,5.5477963 L16.0737901,5.5477963 Z M21.0623128,2.25130716 C21.0623128,2.97075146 20.5909258,3.34224435 20.3160058,3.4538283 C20.5477566,3.54363976 20.7458273,3.70230669 20.8400513,3.83375802 C20.9894731,4.05815062 21.0152677,4.25859349 21.0152677,4.66152039 L21.0152677,5.5477963 L19.9469954,5.5477963 L19.9429859,4.97885425 C19.9429859,4.70737867 19.9685132,4.31697094 19.7757885,4.09992656 C19.6211543,3.94125963 19.3851267,3.9068319 19.0039541,3.9068319 L17.8669852,3.9068319 L17.8669852,5.5477963 L16.8078012,5.5477963 L16.8078012,1.03626685 L19.2439913,1.03626685 C19.7851441,1.03626685 20.1840923,1.05096328 20.5263724,1.25235869 C20.8614354,1.45402626 21.0623128,1.74809078 21.0623128,2.25130716 L21.0623128,2.25130716 Z M21.6767064,1.03626685 L22.7574082,1.03626685 L22.7574082,5.5477963 L21.6767064,5.5477963 L21.6767064,1.03626685 Z M35.2948055,5.5477963 L33.7940387,5.5477963 L31.7863337,2.16163177 L31.7863337,5.5477963 L29.6294742,5.5477963 L29.2172946,4.54149961 L27.0171322,4.54149961 L26.6172485,5.5477963 L25.3777693,5.5477963 C24.8630794,5.5477963 24.2112635,5.43185785 23.8421195,5.04879833 C23.4699016,4.66573881 23.2761076,4.14700954 23.2761076,3.3264593 C23.2761076,2.65736386 23.391983,2.04569333 23.8471983,1.56234433 C24.1894784,1.20228199 24.7256862,1.03626685 25.4555542,1.03626685 L26.4810581,1.03626685 L26.4810581,2.00296484 L25.477072,2.00296484 C25.090687,2.00296484 24.8724349,2.06147838 24.6622019,2.27035808 C24.4815058,2.46018687 24.3576114,2.81929666 24.3576114,3.29216765 C24.3576114,3.77551665 24.451969,4.12414844 24.6489705,4.35167083 C24.8120247,4.53020514 25.1081953,4.58436418 25.3869912,4.58436418 L25.862655,4.58436418 L27.3555365,1.03640293 L28.9425082,1.03640293 L30.7357034,5.30367239 L30.7357034,1.03640293 L32.3482024,1.03640293 L34.2099605,4.17857963 L34.2099605,1.03640293 L35.2948055,1.03640293 L35.2948055,5.5477963 L35.2948055,5.5477963 Z M0.310726349,6.4340722 L2.1203606,6.4340722 L2.52839704,5.43185785 L3.44190147,5.43185785 L3.8488687,6.4340722 L7.40959808,6.4340722 L7.40959808,5.66781708 L7.7274201,6.43720199 L9.57581314,6.43720199 L9.89363516,5.65638653 L9.89363516,6.4340722 L18.7423991,6.4340722 L18.7381223,4.78902546 L18.9094629,4.78902546 C19.0292141,4.79324388 19.0643644,4.80453835 19.0643644,5.00620592 L19.0643644,6.4340722 L23.6409748,6.4340722 L23.6409748,6.05101268 C24.0101188,6.25240809 24.5842834,6.4340722 25.3398124,6.4340722 L27.2650547,6.4340722 L27.6771007,5.43185785 L28.5906052,5.43185785 L28.9936965,6.4340722 L32.7038477,6.4340722 L32.7038477,5.48207063 L33.26585,6.4340722 L36.2390497,6.4340722 L36.2390497,0.141690194 L33.2964561,0.141690194 L33.2964561,0.884812058 L32.8844101,0.141690194 L29.8651009,0.141690194 L29.8651009,0.884812058 L29.486735,0.141690194 L25.408509,0.141690194 C24.7256862,0.141690194 24.1257269,0.238713796 23.6409748,0.509100748 L23.6409748,0.141690194 L20.8264189,0.141690194 L20.8264189,0.509100748 C20.5180861,0.230413039 20.0976201,0.141690194 19.6302426,0.141690194 L9.34820552,0.141690194 L8.65816552,1.76686954 L7.94981533,0.141690194 L4.71105117,0.141690194 L4.71105117,0.884812058 L4.35527226,0.141690194 L1.59324114,0.141690194 L0.310592699,3.13336465 L0.310592699,6.4340722 L0.310726349,6.4340722 L0.310726349,6.4340722 Z" id="Fill-7"></path>
                        <path d="M37.6879508,9.64622826 L35.7574961,9.64622826 C35.5649051,9.64622826 35.4368674,9.65344039 35.3288774,9.72760289 C35.2171452,9.80081285 35.1741096,9.90913092 35.1741096,10.052285 C35.1741096,10.2226546 35.2684672,10.3383209 35.4057267,10.3885337 C35.517459,10.4281323 35.6376112,10.4395629 35.8138968,10.4395629 L36.3879278,10.4552119 C36.9671711,10.4697722 37.3539571,10.5711503 37.5895837,10.8185401 C37.6326193,10.8528317 37.6582803,10.891614 37.6879508,10.930124 L37.6879508,9.64622826 Z M37.6879508,12.6213012 C37.4306727,13.0043607 36.9293479,13.1984079 36.2506682,13.1984079 L34.20514,13.1984079 L34.20514,12.2308935 L36.2422482,12.2308935 C36.4443285,12.2308935 36.5858649,12.2038139 36.6708669,12.1190374 C36.7446422,12.0493654 36.7962315,11.9478513 36.7962315,11.8247007 C36.7962315,11.6932494 36.7446422,11.5890136 36.6667237,11.5262817 C36.5900081,11.4574262 36.4781422,11.4261283 36.2935702,11.4261283 C35.2992069,11.3918366 34.0585249,11.4574262 34.0585249,10.0294239 C34.0585249,9.37488876 34.4665613,8.68592594 35.5781365,8.68592594 L37.6878172,8.68592594 L37.6878172,7.7880834 L35.7276919,7.7880834 C35.1361527,7.7880834 34.7063312,7.93246214 34.4021415,8.15658258 L34.4021415,7.7880834 L31.5027172,7.7880834 C31.0392156,7.7880834 30.4948552,7.90511047 30.237577,8.15658258 L30.237577,7.7880834 L25.0600718,7.7880834 L25.0600718,8.15658258 C24.6480258,7.85408123 23.9527734,7.7880834 23.6320111,7.7880834 L20.2169613,7.7880834 L20.2169613,8.15658258 C19.8909865,7.83516639 19.1660636,7.7880834 18.7240799,7.7880834 L14.9020628,7.7880834 L14.0274508,8.75178768 L13.2084376,7.7880834 L7.49913512,7.7880834 L7.49913512,14.0846838 L13.1009822,14.0846838 L14.0020571,13.1058749 L14.8511418,14.0846838 L18.3040148,14.0878136 L18.3040148,12.6067409 L18.643622,12.6067409 C19.1016439,12.6138169 19.6419948,12.5950381 20.1188615,12.385342 L20.1188615,14.0846838 L22.9668302,14.0846838 L22.9668302,12.4434473 L23.104357,12.4434473 C23.2795735,12.4434473 23.2969481,12.4509316 23.2969481,12.6293298 L23.2969481,14.0844117 L31.9488442,14.0844117 C32.4982834,14.0844117 33.072448,13.9412576 33.39027,13.6814848 L33.39027,14.0844117 L36.1347928,14.0844117 C36.7057498,14.0844117 37.263609,14.002901 37.6879508,13.7941573 L37.6879508,12.6213012 L37.6879508,12.6213012 Z M33.4629761,10.8185401 C33.6691996,11.0357205 33.7798626,11.3100538 33.7798626,11.7744879 C33.7798626,12.7452682 33.1841802,13.1984079 32.1159079,13.1984079 L30.0531387,13.1984079 L30.0531387,12.2308935 L32.1077552,12.2308935 C32.3086326,12.2308935 32.4509709,12.2038139 32.5402498,12.1190374 C32.6130895,12.0493654 32.6654807,11.9478513 32.6654807,11.8247007 C32.6654807,11.6932494 32.6089464,11.5888775 32.5362402,11.5262817 C32.4551141,11.4574262 32.3433819,11.4261283 32.1590772,11.4261283 C31.1684561,11.3918366 29.9280414,11.4574262 29.9280414,10.0294239 C29.9280414,9.37488876 30.3320683,8.68592594 31.442307,8.68592594 L33.5657537,8.68592594 L33.5657537,9.64650042 L31.6228694,9.64650042 C31.4301447,9.64650042 31.3050474,9.65371255 31.1983939,9.72787505 C31.0825185,9.80094893 31.0394829,9.90940308 31.0394829,10.0525571 C31.0394829,10.2229268 31.1379837,10.338593 31.2712337,10.3888058 C31.3829659,10.4284045 31.5028509,10.4398351 31.6834133,10.4398351 L32.2535684,10.455484 C32.8284013,10.4697722 33.2230726,10.5711503 33.4629761,10.8185401 L33.4629761,10.8185401 Z M23.9059956,10.5397163 C23.7641919,10.6253093 23.5891091,10.6327936 23.3828857,10.6327936 L22.0963613,10.6327936 L22.0963613,9.61928482 L23.4003939,9.61928482 C23.5891091,9.61928482 23.7778243,9.62336716 23.9059956,9.70065945 C24.0432551,9.77373333 24.1251832,9.9136215 24.1251832,10.1065801 C24.1251832,10.2998108 24.0432551,10.4552119 23.9059956,10.5397163 L23.9059956,10.5397163 Z M24.5456492,11.1013101 C24.7812758,11.190033 24.9741342,11.3486999 25.0643486,11.4801512 C25.2140377,11.7004615 25.2356892,11.9060753 25.2398324,12.3039673 L25.2398324,13.1984079 L24.1766388,13.1984079 L24.1766388,12.6338204 C24.1766388,12.3624809 24.2021662,11.9603704 24.0054319,11.7506743 C23.8506641,11.5888775 23.6147701,11.5502314 23.2282515,11.5502314 L22.096495,11.5502314 L22.096495,13.1984079 L21.0322322,13.1984079 L21.0322322,8.68578986 L23.4775106,8.68578986 C24.0135846,8.68578986 24.4041128,8.70987566 24.7518726,8.89888798 C25.0861337,9.10436573 25.2963667,9.38604716 25.2963667,9.90083017 C25.2962331,10.6210909 24.8244451,10.9886376 24.5456492,11.1013101 L24.5456492,11.1013101 Z M25.8836291,8.68578986 L29.4185639,8.68578986 L29.4185639,9.61914874 L26.938269,9.61914874 L26.938269,10.4395629 L29.3578863,10.4395629 L29.3578863,11.3601305 L26.938269,11.3601305 L26.938269,12.257973 L29.4185639,12.2620553 L29.4185639,13.1984079 L25.8836291,13.1984079 L25.8836291,8.68578986 L25.8836291,8.68578986 Z M18.7377123,10.7683273 L17.3688589,10.7683273 L17.3688589,9.61928482 L18.7500081,9.61928482 C19.1323836,9.61928482 19.3976808,9.77795175 19.3976808,10.1724418 C19.3976808,10.5628496 19.1446795,10.7683273 18.7377123,10.7683273 L18.7377123,10.7683273 Z M16.3140854,12.7879967 L14.6879539,10.9498553 L16.3140854,9.17022748 L16.3140854,12.7879967 L16.3140854,12.7879967 Z M12.114638,12.257973 L9.51058234,12.257973 L9.51058234,11.3601305 L11.8357084,11.3601305 L11.8357084,10.4395629 L9.51058234,10.4395629 L9.51058234,9.61914874 L12.16596,9.61914874 L13.3244467,10.9342064 L12.114638,12.257973 L12.114638,12.257973 Z M20.534917,10.1724418 C20.534917,11.4261283 19.6163338,11.6848125 18.6903998,11.6848125 L17.3688589,11.6848125 L17.3688589,13.1984079 L15.3102329,13.1984079 L14.0060667,11.7046799 L12.6508457,13.1984079 L8.45540787,13.1984079 L8.45540787,8.68578986 L12.7152655,8.68578986 L14.0183625,10.1649575 L15.3655644,8.68578986 L18.7500081,8.68578986 C19.5905391,8.68578986 20.534917,8.92270163 20.534917,10.1724418 L20.534917,10.1724418 Z" id="Fill-6"></path>
                    </g>
                </g>
            </g>
        </g>
    </g>
</svg>