<?xml version="1.0" encoding="UTF-8"?>
<svg width="123px" height="47px" viewBox="0 0 123 47" version="1.1" xmlns="http://www.w3.org/2000/svg" xmlns:xlink="http://www.w3.org/1999/xlink">
    <!-- Generator: Sketch 57.1 (83088) - https://sketch.com -->
    <title>efax-logo-color</title>
    <desc>Created with Sketch.</desc>
    <g id="Symbols" stroke="none" stroke-width="1" fill="none" fill-rule="evenodd">
        <g id="Global-header" transform="translate(-16.000000, -17.000000)">
            <g id="efax-logo-color" transform="translate(16.000000, 17.000000)">
                <path d="M50.6673825,10.5542437 C50.662606,4.15651777 46.3227489,0.167482234 38.9184106,0.17677056 C37.4344887,0.178695431 35.8260118,0.341167513 34.1051492,0.67780203 C32.6131146,0.971253807 30.9080003,2.33663959 30.291668,3.74019797 C29.6798694,5.1330203 30.3892599,6.02792893 31.8836807,5.72922843 C42.4892244,3.65788832 47.6091008,10.0322335 43.2902415,19.9384975 C41.0680572,25.0376396 36.8212584,30.3548426 31.6355252,34.5271066 C27.1520243,38.1279746 22.4814524,40.4946751 18.1213133,41.3559442 C8.5911895,43.2419086 3.6402496,38.3675076 7.0831679,30.4960812 C10.0832242,23.634797 18.4062149,15.221797 26.6254098,13.5925431 C33.0063455,12.3278376 38.1383912,14.9932386 35.2953409,21.5155025 C33.039751,26.6816853 27.2205057,32.7203503 21.3852734,33.8843756 C16.8316208,34.7962234 13.2288331,33.1779442 15.0849882,28.9061929 C16.5245284,25.5873249 20.0192253,21.7392893 23.3733803,21.0586244 C25.5447405,20.6146294 28.1902208,20.9653401 27.2794426,23.1344975 C26.7833703,24.3190406 25.5530919,26.1933147 24.5070212,26.4557513 C23.7124466,26.6430355 23.3698012,26.6027157 23.2896279,26.5631117 C23.2951159,26.492731 23.3015584,26.4557513 23.3072851,26.4335635 C23.3230334,26.4068426 23.3504737,26.3689086 23.4058314,26.291132 C24.4597763,24.873736 24.3199502,23.5982944 23.0956371,23.4336751 C21.8703696,23.2750203 20.0242362,24.2920812 18.9722002,25.7111472 C18.0084503,27.0030508 17.5531805,28.0422995 17.4560658,29.1745939 C17.2592117,31.4227208 19.1805076,32.275401 22.600042,31.4356041 C26.6347156,30.4571929 30.8030114,26.5631117 32.7333745,21.9754822 C34.9522183,16.6993147 30.684899,14.9617462 25.5449791,16.0100609 C18.8046953,17.3873756 12.1794219,24.2021371 9.66493905,29.9902944 C6.44082706,37.4198731 11.9706373,40.3751472 19.1852798,38.938665 C28.4068796,37.0918274 37.3693479,28.086198 40.7075159,20.4345025 C42.6295276,16.0394061 42.3155155,12.4096701 39.8201216,10.2192792 C37.5473517,8.21808122 33.5386867,7.60970558 28.8325617,8.54135533 C23.5943341,9.58036548 17.8378434,12.6670964 12.623477,17.2296751 C7.73075819,21.5085838 3.83972841,26.6029543 1.67218597,31.5644365 C0.631841961,33.9423503 0.112624398,36.1444315 0.109753557,38.1010152 C0.106897734,40.5600457 0.922947396,42.6301929 2.54979728,44.1616294 C4.45963982,45.9657614 7.3193928,46.9019442 10.8405755,46.925802 C12.4089657,46.937731 14.1081147,46.7661929 15.9139229,46.4080863 C21.6563355,45.2662487 28.0468156,42.0463909 33.9042387,37.3373249 C40.5092302,32.0248934 45.9047024,25.2893401 48.7071887,18.8555888 C50.0388768,15.7962944 50.6692871,12.9996751 50.6673825,10.5542437 Z" id="Path" fill="#EA2D30"></path>
                <path d="M50.4776824,26.5082386 C50.4776824,24.5208782 51.1343399,21.7765076 52.9568509,21.7765076 C54.8323334,21.7765076 55.2005102,24.2369695 55.2005102,26.5082386 L50.4776824,26.5082386 Z M61.4731165,31.5837614 C61.6158059,30.8322386 61.7110117,29.7956142 61.7110117,27.817797 C61.7110117,20.0413249 58.3876375,16.5649949 53.3314701,16.5649949 C47.8949568,16.5649949 43.4828006,21.169802 43.4828006,29.0939543 C43.4828006,36.3763299 47.191293,40.3660812 53.8012952,40.3660812 C56.3265156,40.3660812 58.9481348,39.9488071 60.6310582,39.3380457 L59.7436639,34.1620812 C58.5257933,34.5414213 56.9340192,34.9207614 55.1091222,34.9207614 C52.3503017,34.9207614 50.572411,33.6503299 50.4776824,31.5341371 L61.4731165,31.5837614 Z" id="Shape" fill="#000000" fill-rule="nonzero"></path>
                <polygon id="Path" fill="#000000" fill-rule="nonzero" points="63.3462129 8.45737563 77.8745216 8.45737563 77.8745216 14.7644416 70.6393585 14.7644416 70.6393585 21.582066 76.9592098 21.582066 76.9592098 27.5954416 70.6393585 27.5954416 70.6393585 40.1160508 63.3464516 40.1160508 63.3464516 8.45737563"></polygon>
                <path d="M87.86254,32.9419898 C87.86254,33.2946091 87.8124317,33.6238477 87.7177031,33.8569391 C87.2991794,34.8828274 86.3058418,35.2099188 85.5525468,35.2099188 C84.7531999,35.2099188 82.7968282,34.8787716 82.7968282,32.9221878 C82.7968282,30.4963198 85.7436742,29.2406802 87.86254,29.1941574 L87.86254,32.9419898 Z M94.9857946,26.8455888 C94.9857946,22.3257157 94.1916971,16.6081777 86.1655385,16.6081777 C82.5431847,16.6081777 79.6254493,17.7340305 78.2219393,18.4807817 L79.4889638,23.3411066 C80.9919745,22.4237716 82.5434233,21.891264 84.5639814,21.891264 C86.4468609,21.891264 87.6263151,22.9083249 87.6263151,24.2143046 L87.6263151,24.6497107 C82.3988251,24.6986193 75.9875858,27.546533 75.9875858,33.7114061 C75.9875858,37.8316599 79.4438663,40.4763046 83.1070225,40.4763046 C85.1803136,40.4763046 87.0636703,39.6804061 88.4259006,37.8915431 L88.51705,37.8915431 L89.3860713,40.1158122 L95.8555317,40.1158122 C95.5737321,38.517335 94.9860332,36.6950711 94.9860332,34.8160254 L94.9860332,26.8455888 L94.9857946,26.8455888 Z" id="Shape" fill="#000000" fill-rule="nonzero"></path>
                <path d="M103.732081,16.9825076 L104.807978,20.7415533 C105.233899,22.1496447 105.561273,23.5648934 105.79726,24.5461675 L105.892465,24.5461675 C106.123918,23.5167005 106.405479,22.0539746 106.782962,20.7415533 L107.862438,16.9825076 L115.09426,16.9825076 L109.974145,28.3612792 L115.234564,40.1162893 L107.345368,40.1162893 L106.028951,36.118665 C105.65624,34.9909036 105.32481,33.7607919 105.089301,32.7287005 L104.997913,32.7287005 C104.762404,33.8161421 104.435268,35.0312234 104.149412,36.1651878 L103.073515,40.1162893 L95.8421695,40.1162893 L100.821027,28.6442335 L95.8421695,16.9825076 L103.732081,16.9825076 Z" id="Path" fill="#000000" fill-rule="nonzero"></path>
                <path d="M120.098411,10.7742132 C121.681833,10.7742132 122.941938,12.0424975 122.941938,13.6292843 C122.941938,15.2392132 121.681833,16.4962843 120.08648,16.4962843 C118.505443,16.4962843 117.220046,15.2392132 117.220046,13.6292843 C117.220046,12.042736 118.505443,10.7742132 120.08648,10.7742132 L120.098411,10.7742132 Z M120.08648,11.217731 C118.813252,11.217731 117.772908,12.2965838 117.772908,13.6292843 C117.772908,14.9863198 118.813252,16.0510964 120.098411,16.0510964 C121.386433,16.0654112 122.415323,14.9863198 122.415323,13.6404975 C122.415323,12.2963452 121.386433,11.2174924 120.098411,11.2174924 L120.08648,11.2174924 L120.08648,11.217731 Z M119.546026,15.2907462 L119.033251,15.2907462 L119.033251,12.1057208 C119.302881,12.068264 119.558911,12.0308071 119.945938,12.0308071 C120.434375,12.0308071 120.757216,12.1314873 120.95049,12.2705787 C121.142334,12.4101472 121.245175,12.627731 121.245175,12.9309645 C121.245175,13.3508629 120.959558,13.6037563 120.616912,13.7039594 L120.616912,13.7309188 C120.898712,13.7803046 121.090555,14.0351066 121.157605,14.5043909 C121.233245,14.9982487 121.311032,15.1891117 121.362094,15.2907462 L120.821402,15.2907462 C120.744092,15.1891117 120.667975,14.8975685 120.602596,14.4788629 C120.525286,14.0739949 120.320319,13.9217817 119.908715,13.9217817 L119.545787,13.9217817 L119.545787,15.2907462 L119.546026,15.2907462 Z M119.546026,13.5259797 L119.920168,13.5259797 C120.343703,13.5259797 120.705914,13.3737665 120.705914,12.9808274 C120.705914,12.7024061 120.498323,12.4237462 119.920168,12.4237462 C119.75314,12.4237462 119.637175,12.436868 119.546026,12.4497513 L119.546026,13.5259797 Z" id="Shape" fill="#000000" fill-rule="nonzero"></path>
            </g>
        </g>
    </g>
</svg>